<svg width="186" height="185" viewBox="0 0 186 185" fill="none" xmlns="http://www.w3.org/2000/svg">
<path d="M160.451 89.8376C152.52 65.0202 135.17 41.611 110.681 31.0168C98.6622 25.8176 83.5858 25.5823 73.4463 33.8688C68.4472 37.9543 65.0614 43.7034 60.2565 48.015C54.3299 53.3341 46.6446 56.1417 39.3815 59.4077C32.1185 62.6729 24.7568 66.8306 20.7328 73.7026C17.3381 79.4998 16.7646 86.6597 18.1625 93.2309C19.5606 99.8013 22.7927 105.854 26.5969 111.391C37.2485 126.895 52.7833 139.011 70.4523 145.464C85.1561 150.834 101.741 152.227 116.427 146.808C129.684 141.917 140.366 132.003 150.668 122.329C155.436 117.851 160.418 113.026 162.076 106.698C163.528 101.16 162.194 95.2907 160.451 89.8376Z" fill="#A0EEC0"/>
<path d="M156.748 65.4119C158.599 68.2347 160.451 71.057 162.302 73.8794C163.033 74.9938 163.935 76.2178 165.26 76.3621C166.413 76.4875 167.519 75.6817 168.043 74.6472C168.566 73.6126 168.606 72.3998 168.497 71.2454C168.159 67.6804 165.826 62.1448 162.673 60.0403C158.674 57.3707 153.906 61.08 156.748 65.4119Z" fill="#A0EEC0"/>
<path d="M97.0265 23.4402C97.4157 23.7499 94.6555 30.6353 94.0617 31.1566L93.1478 31.7597L92.7585 33.209L89.7808 32.24L88.885 31.9513C88.9509 31.7138 89.0082 31.5351 89.0204 31.4922L89.0234 31.4848C89.0234 31.4848 88.9941 31.4663 88.9438 31.4271C88.895 31.396 88.8299 31.3453 88.7507 31.2828L88.7067 31.2524C88.6275 31.1895 88.5361 31.1177 88.4406 31.0356L88.4025 31.0005C88.3404 30.9475 88.2738 30.8883 88.2046 30.8269C88.1502 30.7773 88.0928 30.7244 88.0388 30.6697C87.6818 30.3241 87.3151 29.8919 87.0998 29.4309L87.0975 29.428C87.0376 29.3022 86.9884 29.1723 86.958 29.0365L86.9558 29.0339C86.9196 28.9029 86.9048 28.769 86.9055 28.6365C86.9088 28.4264 86.9118 28.2162 86.9099 28.0053C86.9081 27.7948 86.8981 27.5861 86.8803 27.3785C86.8474 26.9623 86.7745 26.5545 86.6199 26.1623C86.5603 26.0077 86.4948 25.8582 86.4275 25.7058C86.3853 25.6081 86.3409 25.5074 86.2969 25.4068C86.255 25.3039 86.2188 25.2014 86.1825 25.099C86.1644 25.0475 86.1514 24.9968 86.1363 24.9435C86.1207 24.8899 86.1104 24.837 86.1008 24.7785C86.0708 24.6146 86.0567 24.447 86.0737 24.2824C86.0904 24.1177 86.13 23.9582 86.1995 23.8117C86.2225 23.7647 86.2536 23.7159 86.2839 23.6722L86.3568 23.5942L86.3956 23.572L86.47 23.5535L86.547 23.5668C86.5973 23.5823 86.6487 23.6108 86.6928 23.6412L86.6946 23.6441L86.7212 23.6648C87.6969 24.4167 88.4018 25.5071 88.6878 26.7029C88.7932 26.5083 92.272 19.8398 92.7263 19.9693C92.901 20.0155 93.0353 20.0995 93.1333 20.185C93.3028 20.3293 93.3783 20.4802 93.3783 20.4802C93.3783 20.4802 91.5816 25.5145 91.6722 25.7472C91.7381 25.9152 93.0938 23.9098 94.025 22.7028C94.3995 22.2133 94.7088 21.8578 94.8335 21.8315C94.9589 21.8 95.1103 21.8703 95.2616 21.9921C95.3981 22.1023 95.5443 22.2522 95.6641 22.3994C95.8739 22.6392 96.0216 22.8727 96.0216 22.8727C96.0216 22.8727 96.0815 22.8945 96.1755 22.9404C96.2994 22.9996 96.4848 23.0939 96.6761 23.2068C96.7989 23.2767 96.9207 23.3566 97.0265 23.4402Z" fill="#F68672"/>
<path d="M95.6628 22.3981C95.5992 22.5221 95.5333 22.6475 95.4623 22.7718C95.0501 23.5026 94.5921 24.1142 94.2376 24.5367C93.9042 24.9326 93.6656 25.1683 93.6367 25.1953C93.6515 25.1591 93.7795 24.8497 93.9978 24.3846C94.2309 23.8866 94.5617 23.2121 94.9676 22.494C95.0657 22.3208 95.1641 22.1535 95.2592 21.9922C95.3994 22.1021 95.5411 22.2516 95.6628 22.3981Z" fill="#D03B58"/>
<path d="M96.6773 23.2066C96.0439 24.3821 95.3342 25.2131 95.2891 25.2656C95.3053 25.1975 95.5795 24.1371 96.1778 22.9398C96.3021 23.0012 96.4886 23.0945 96.6773 23.2066Z" fill="#D03B58"/>
<path d="M86.6928 23.6414C86.6802 23.7365 86.6683 23.8261 86.662 23.9163C86.6132 24.6493 86.9847 25.3368 87.1693 26.0494C87.4224 27.0317 87.3206 28.1047 87.7521 29.022C88.1172 29.7997 88.8114 30.3562 89.4348 30.9423C89.6268 31.1258 89.8244 31.3274 89.8736 31.5846C89.8921 31.6826 89.8903 31.7785 89.8773 31.8787C89.8548 31.996 89.8222 32.1122 89.7874 32.2254L89.7808 32.2402L88.885 31.9516C88.9509 31.7141 89.0082 31.5354 89.0204 31.4925L89.0234 31.4851C89.0234 31.4851 88.9941 31.4666 88.9438 31.4273C88.8979 31.394 88.8299 31.3456 88.7507 31.283L88.7067 31.2527C88.6275 31.1898 88.5391 31.1158 88.4406 31.0359L88.4025 31.0007C88.3404 30.9478 88.2738 30.8886 88.2046 30.8272C88.1502 30.7776 88.0928 30.7247 88.0388 30.67C87.6818 30.3244 87.3151 29.8922 87.0998 29.4312L87.0975 29.4282C87.0406 29.3002 86.9913 29.1703 86.958 29.0368L86.9558 29.0342C86.9225 28.901 86.9077 28.767 86.9081 28.6342C86.9114 28.4244 86.9147 28.2139 86.9099 28.0056C86.9081 27.795 86.8981 27.5864 86.8803 27.3788C86.8474 26.9625 86.7745 26.5548 86.6199 26.1626C86.5603 26.0079 86.4948 25.8585 86.4275 25.706C86.3853 25.6083 86.3409 25.5077 86.2969 25.4071C86.255 25.3042 86.2188 25.2017 86.1825 25.0992C86.1674 25.0456 86.1544 24.9949 86.1389 24.9416C86.1237 24.888 86.1133 24.835 86.1008 24.7788C86.0708 24.6149 86.0567 24.4473 86.0737 24.2826C86.0852 24.1176 86.1248 23.9578 86.1995 23.812C86.2225 23.765 86.2536 23.7162 86.2839 23.6725L86.3568 23.5944L86.3934 23.5693L86.47 23.5537L86.547 23.5671C86.5973 23.5826 86.6487 23.6111 86.6928 23.6414Z" fill="#F9AA7F"/>
<path d="M92.1981 30.3809C92.4153 29.1106 91.7052 27.7379 90.5431 27.1815C90.273 27.0523 89.9718 26.9628 89.6758 27.0072C90.5841 26.8185 91.605 27.0897 92.1762 27.8208C92.7475 28.552 92.601 29.545 92.1981 30.3809Z" fill="#F36269"/>
<path d="M66.2148 50.5698L80.0573 45.8594L88.8848 31.9525L92.8452 32.8868L88.0619 50.2749C87.8647 50.992 87.3722 51.5914 86.7073 51.9237L67.9649 61.2969L66.2148 50.5698Z" fill="#F68672"/>
<path d="M52.9334 159.759C52.8157 160.927 47.3286 162.492 46.4924 161.971C45.6581 161.45 42.5238 158.349 42.4924 156.757C42.4827 156.255 42.8768 155.264 43.4188 154.143C44.5973 151.712 46.4813 148.667 46.4813 148.667L53.4584 150C53.4584 150 53.2113 155.214 53.0496 158.023C53.0018 158.853 52.9608 159.493 52.9334 159.759Z" fill="#4C5F6B"/>
<path d="M52.9334 159.759C52.8157 160.927 47.3286 162.492 46.4924 161.971C45.6581 161.45 42.5238 158.349 42.4924 156.757C42.4827 156.255 42.8768 155.264 43.4188 154.143C44.4315 155.876 46.1332 158.397 47.6128 158.685C48.8438 158.927 51.1729 158.482 53.0496 158.023C53.0018 158.853 52.9608 159.493 52.9334 159.759Z" fill="#FDE6D5"/>
<path d="M48.1678 151.664C48.4072 151.972 48.7191 152.211 49.0495 152.423C49.4047 152.651 49.7865 152.892 50.2283 152.936C50.6853 152.982 50.8629 152.519 50.5987 152.188C50.1421 151.616 49.3103 151.125 48.533 151.08L48.4597 151.077C48.2769 151.073 48.0294 151.135 48.0313 151.36C48.032 151.474 48.0982 151.575 48.1678 151.664Z" fill="#FDE6D5"/>
<path d="M49.9201 154.55C50.377 154.596 50.5546 154.132 50.2905 153.802C49.8339 153.23 49.0021 152.739 48.2244 152.693L48.1515 152.69C47.9687 152.686 47.7212 152.748 47.7227 152.973C47.7238 153.087 47.79 153.188 47.8596 153.278C48.099 153.586 48.4109 153.824 48.7413 154.036C49.0965 154.264 49.4783 154.506 49.9201 154.55Z" fill="#FDE6D5"/>
<path d="M49.5366 155.455C49.0796 154.884 48.2482 154.392 47.4708 154.347L47.3976 154.344C47.2148 154.341 46.9673 154.403 46.9688 154.627C46.9699 154.742 47.0361 154.842 47.1057 154.931C47.345 155.24 47.657 155.478 47.9874 155.69C48.3426 155.918 48.7244 156.16 49.1662 156.204C49.6231 156.249 49.8007 155.787 49.5366 155.455Z" fill="#FDE6D5"/>
<path d="M88.7651 158.055C88.7329 157.748 88.6075 157.385 88.223 157.189C87.1012 156.616 82.9668 154.803 81.8742 153.843C81.0254 153.098 80.3306 151.545 80.062 150.887L72.181 150.814C71.61 152.79 71.0898 156.632 70.9844 157.436L88.7651 158.055Z" fill="#4C5F6B"/>
<path d="M88.7143 159.807L70.9336 159.188L70.9865 157.436L88.7672 158.054L88.7143 159.807Z" fill="#FDE6D5"/>
<path d="M80.3623 154.282L80.3245 154.342C80.2331 154.492 80.1699 154.726 80.3734 154.826C80.477 154.876 80.5998 154.867 80.7138 154.849C81.1071 154.788 81.473 154.636 81.8234 154.456C82.2 154.263 82.6015 154.053 82.8546 153.705C83.1158 153.345 82.7832 152.989 82.3577 153.06C81.6217 153.183 80.7778 153.655 80.3623 154.282Z" fill="#FDE6D5"/>
<path d="M81.6708 155.267L81.6331 155.326C81.5417 155.476 81.4784 155.711 81.6819 155.81C81.7855 155.861 81.9084 155.851 82.0227 155.833C82.416 155.772 82.7816 155.62 83.132 155.44C83.5086 155.247 83.9104 155.037 84.1632 154.689C84.4244 154.329 84.0918 153.973 83.6663 154.044C82.93 154.167 82.086 154.639 81.6708 155.267Z" fill="#FDE6D5"/>
<path d="M83.2962 155.944L83.2584 156.003C83.1667 156.154 83.1034 156.388 83.3069 156.488C83.4109 156.539 83.5333 156.529 83.6477 156.511C84.041 156.45 84.4065 156.298 84.7573 156.118C85.134 155.924 85.5354 155.715 85.7881 155.367C86.0493 155.007 85.7171 154.651 85.2912 154.722C84.5553 154.845 83.7113 155.316 83.2962 155.944Z" fill="#FDE6D5"/>
<path d="M49.4279 113.844L51.5591 122.785L46.9186 136.004L45.5352 150.246L53.3836 151.539C53.3836 151.539 60.2064 127.69 60.4021 124.777C60.4891 123.48 61.0263 118.043 61.5954 112.41C57.3178 112.371 53.7051 112.799 49.4279 113.844Z" fill="#F68672"/>
<path d="M79.8482 106.947C77.0866 98.331 73.7225 88.0298 73.7225 88.0298L50.8421 88.5326L47.918 88.5977L48.7638 114.002C53.041 112.957 57.3178 112.371 61.5954 112.41C62.3043 105.389 63.0628 98.0635 63.0628 98.0635C63.0628 98.0635 66.4997 105.978 69.022 112.125C72.264 110.766 75.6972 109.901 78.8607 107.687C79.1123 107.435 79.4546 107.184 79.8482 106.947Z" fill="#363950"/>
<path d="M83.3895 118.366C83.2415 117.618 81.6771 112.651 79.8493 106.947C79.4556 107.185 79.1134 107.435 78.8618 107.687C75.6983 109.901 72.7501 110.499 69.5078 111.858C70.9331 115.332 72.3875 118.425 72.4427 119.023C70.2019 135.319 72.2181 150.962 72.2181 150.962L73.183 151.014L79.5711 151.105C79.5711 151.105 83.7621 120.246 83.3895 118.366Z" fill="#F68672"/>
<path d="M68.8111 94.3957L61.1836 94.876L63.0643 98.0635C63.0643 98.0635 66.5012 105.978 69.0235 112.125C69.8571 111.775 70.7033 111.457 71.5547 111.142C68.6668 104.889 64.6797 96.6668 64.6797 96.6668L68.8111 94.3957Z" fill="#282A3E"/>
<path d="M50.8421 88.5326L47.918 88.5977L48.7638 114.002C49.4882 113.825 50.2127 113.662 50.9372 113.512C50.9453 105.297 50.8735 93.5887 50.8421 88.5326Z" fill="#282A3E"/>
<path d="M59.6753 49.7871L53.9525 47.3692C53.762 46.4442 53.7472 45.0078 53.7883 43.7243C53.833 42.2358 53.9525 40.9563 53.9525 40.9563L59.332 42.0456L59.0263 45.5225L58.9368 46.5263L59.6753 49.7871Z" fill="#F68672"/>
<path d="M59.3328 42.0453L59.0272 45.5222C57.8742 45.6976 56.6802 45.3953 55.6357 44.8806C54.9753 44.5561 54.3859 44.1421 53.7891 43.724C53.8338 42.2355 53.9533 40.956 53.9533 40.956L59.3328 42.0453Z" fill="#F36269"/>
<path d="M52.7879 41.3019C52.7879 41.3019 52.9762 41.6974 53.6751 42.1903H53.6762C53.819 42.2916 53.9844 42.3971 54.1731 42.504C54.895 42.9099 61.4529 44.9016 62.4034 44.6663C63.354 44.431 63.8971 41.0155 63.9089 40.6614C63.9822 38.4884 64.1054 31.7844 64.1054 31.7844C60.9301 24.8439 52.853 29.5118 51.9661 30.3255C51.0796 31.1398 52.7879 41.3019 52.7879 41.3019Z" fill="#F68672"/>
<path d="M53.6758 42.1903C53.8186 42.2916 53.984 42.3971 54.1727 42.504C54.8946 42.9099 61.4524 44.9016 62.403 44.6663C63.3535 44.431 63.8967 41.0155 63.9085 40.6614C63.4686 42.184 63.012 44.2722 62.3216 44.2833C61.2819 44.3004 54.4805 42.5062 53.6758 42.1903Z" fill="#F9AA7F"/>
<path d="M63.5047 32.9012C63.5047 32.9012 61.7221 32.1404 61.4708 32.9966C61.2196 33.8532 61.5041 33.7629 61.5041 33.7629L63.5047 32.9012Z" fill="#FCD18A"/>
<path d="M54.5703 33.2154C54.5703 33.2154 57.6069 32.0159 57.9806 33.1973C58.1985 33.8866 57.7223 34.0312 57.7223 34.0312L54.5703 33.2154Z" fill="#FCD18A"/>
<path d="M62.7599 38.7827C62.8876 39.0357 63.4607 39.0032 64.0394 38.7105C64.6184 38.4178 64.9844 37.9753 64.8563 37.7226C64.7283 37.4699 64.1556 37.5021 63.5765 37.7948C62.9975 38.0874 62.6319 38.53 62.7599 38.7827Z" fill="#F36269"/>
<path d="M55.0269 38.3906C54.9677 38.7995 55.6796 39.2409 56.6164 39.3763C57.5532 39.5117 58.3606 39.2897 58.4198 38.8805C58.479 38.4713 57.7671 38.0302 56.8303 37.8948C55.8934 37.7594 55.0861 37.9814 55.0269 38.3906Z" fill="#F36269"/>
<path d="M61.2654 38.4798C61.2218 38.6148 61.083 38.6862 60.952 38.7458C60.7656 38.8331 60.5713 38.9201 60.3652 38.9482C60.1588 38.9796 59.9963 38.8527 59.798 38.7891C59.6234 38.7299 59.4728 38.5989 59.3932 38.4365C59.3141 38.2737 59.3022 38.0754 59.3618 37.9048C59.8654 38.1627 60.4722 38.2104 61.0116 38.0358C61.1067 38.1627 61.3132 38.3333 61.2654 38.4798Z" fill="#F36269"/>
<path d="M60.1694 35.0559C60.0295 36.2569 60.3655 37.5067 61.0896 38.4754C60.6478 38.7788 60.0776 38.8639 59.5781 38.6708C59.8223 38.9712 60.2156 39.1177 60.6001 39.0689C60.9841 39.02 61.3353 38.7622 61.4966 38.4099C60.9249 37.4083 60.3836 36.1892 60.1694 35.0559Z" fill="#F14568"/>
<path d="M62.1884 40.8371C62.181 41.1994 61.9761 41.5327 61.6956 41.7773L61.6257 41.8384C61.3064 42.0792 60.9171 42.2187 60.5183 42.3157C60.0132 42.4418 59.4782 42.5029 58.9598 42.4107C58.4718 42.326 58.0037 42.0962 57.69 41.7292L57.6308 41.6574C57.3799 41.3204 57.2452 40.7842 57.4417 40.4457C57.5324 40.2947 57.6889 40.1822 57.9349 40.1478C58.3304 40.0923 58.7711 40.2278 59.1715 40.2226C59.6321 40.2181 60.0931 40.1552 60.5412 40.0413C60.8701 39.9514 61.2183 39.8333 61.5494 39.9269C61.6216 39.9491 61.693 39.9798 61.7548 40.0224C62.0319 40.1907 62.1966 40.5212 62.1884 40.8371Z" fill="#121414"/>
<path d="M61.7545 40.0236C61.7079 40.2241 61.6435 40.4276 61.588 40.6315C60.3648 41.0414 59.0002 41.1565 57.7111 40.9815C57.5898 40.8172 57.4999 40.6392 57.4414 40.4468C57.5321 40.2959 57.6886 40.1834 57.9346 40.149C58.3301 40.0935 58.7708 40.2289 59.1712 40.2237C59.6318 40.2193 60.0928 40.1564 60.5409 40.0424C60.8698 39.9525 61.218 39.8345 61.5491 39.9281C61.6213 39.9503 61.6927 39.981 61.7545 40.0236Z" fill="#FDE6D5"/>
<path d="M61.697 41.7773L61.6271 41.8384C61.3078 42.0792 60.9185 42.2187 60.5197 42.3157C60.0146 42.4418 59.4796 42.5029 58.9612 42.4107C58.4732 42.326 58.0052 42.0962 57.6914 41.7292C58.4136 41.4495 59.1729 41.2441 59.9491 41.2608C60.5648 41.273 61.1942 41.4406 61.697 41.7773Z" fill="#F14568"/>
<path d="M54.918 36.2324C54.918 36.2324 56.644 34.1334 58.5614 35.9904C58.5614 35.9904 56.7521 35.4854 54.918 36.2324Z" fill="#121414"/>
<path d="M61.6797 36.0742C61.6797 36.0742 62.6557 34.72 63.7879 35.9573C63.7879 35.9573 62.7338 35.6062 61.6797 36.0742Z" fill="#121414"/>
<path d="M49.4553 34.5007C49.0745 34.8985 48.8895 35.4816 48.9768 36.0259C49.0153 36.2597 49.0886 36.4902 49.2003 36.6959C49.3469 36.9786 49.5633 37.2195 49.846 37.3697C49.9366 37.0138 50.1146 36.5391 50.2682 36.3574C50.8024 36.1269 51.3678 36.2668 51.7552 36.6993C52.1459 37.1322 52.2192 37.8163 51.9369 38.3262C52.4042 38.0361 52.729 37.5303 52.8056 36.9857C52.8929 37.3139 52.9803 37.6383 53.0676 37.9632C53.6363 36.7274 53.4757 35.1815 52.6554 34.0923C52.9836 34.1344 53.3118 34.1725 53.6363 34.2144C53.1897 34.0819 52.9103 33.4814 53.0432 32.9997C53.2 32.438 53.7132 32.0502 54.2297 31.7749C54.7429 31.4989 55.3046 31.2825 55.7131 30.8636C55.7342 31.0731 55.7516 31.2791 55.7689 31.4886C56.2888 31.3209 56.6902 30.8359 56.7602 30.2949C57.1546 31.241 58.006 31.984 59.0009 32.2493C59.0113 31.8656 59.1648 31.4397 59.1789 31.056C59.1963 31.691 59.4963 32.3089 59.9781 32.7173C60.4631 33.1255 61.1262 33.3175 61.7548 33.2268C61.5454 33.1569 61.5032 32.902 61.5243 32.6855C61.9849 33.4396 62.7949 33.9702 63.6707 34.0923C64.5468 34.2144 65.4718 33.9247 66.1208 33.3278C65.4648 33.5865 64.6308 33.0733 64.5642 32.3681C64.5468 32.2075 64.5679 32.0469 64.6064 31.89C65.3183 31.9877 66.0616 31.8726 66.7073 31.5478C66.5711 31.5515 66.4386 31.5233 66.3165 31.4675C66.0198 31.335 65.7823 31.0523 65.6568 30.7452C65.4789 30.3086 65.4681 29.8306 65.4052 29.3629C65.346 28.8989 65.2169 28.4102 64.868 28.096C64.7596 27.9984 64.6238 27.9284 64.4806 27.8866C64.8924 27.6143 65.1262 27.0874 65.1403 26.3089C64.5294 26.7315 63.6847 26.5986 63.018 26.2705C62.3512 25.9426 61.7755 25.4435 61.0984 25.1327C60.0931 24.6758 58.8925 24.6931 57.8839 25.1434C57.6885 25.0247 57.4824 24.9233 57.2663 24.857C56.54 24.6302 55.7164 24.7176 55.0571 25.0979C53.8597 24.7594 52.5821 24.9932 51.6993 25.8694C50.8161 26.7489 50.4532 28.1134 50.7813 29.3141C50.4672 29.1083 50.1494 28.8989 49.8356 28.6891C49.6469 29.1465 49.7446 29.7052 50.0728 30.0715C49.4375 29.932 48.736 30.1447 48.2894 30.6161C48.6209 30.686 48.9558 30.7556 49.2873 30.8255C48.5965 31.1711 48.1429 31.9426 48.1777 32.7173C48.2124 33.4884 48.736 34.2181 49.4553 34.5007Z" fill="#FABF75"/>
<path d="M48.1777 32.7167C48.1987 33.1596 48.38 33.5925 48.6664 33.931C48.8825 34.1823 49.1515 34.3813 49.4553 34.5001C49.0745 34.8978 48.8895 35.481 48.9768 36.0252C49.0153 36.2591 49.0886 36.4896 49.2003 36.6953C49.8667 36.4755 50.4287 35.8754 50.4602 35.1631C50.8372 34.8279 51.0429 34.3151 51.0011 33.8123C51.319 34.0254 51.5424 34.371 51.6083 34.7443C51.5805 33.6765 51.5491 32.6046 51.521 31.5331C51.8003 31.795 52.0834 32.057 52.3624 32.3186C51.9853 31.3203 52.544 30.0708 53.5386 29.6834C53.5456 29.9347 53.556 30.1826 53.563 30.4338C54.4218 30.2699 55.1721 29.6346 55.4755 28.818C55.6572 29.2228 55.8352 29.6242 56.0165 30.0257C56.2714 29.6205 56.5263 29.2124 56.7809 28.804C57.3326 29.2857 57.8839 29.7674 58.4352 30.2525C58.6098 29.8196 58.7844 29.3867 58.9591 28.9575C59.0497 30.0534 59.8212 31.0621 60.8576 31.4354C60.896 31.0935 60.9378 30.7479 60.9763 30.4061C61.3985 31.4254 62.4737 32.1443 63.58 32.1406C63.4161 31.6626 63.2555 31.1808 63.0949 30.7024C63.9778 31.4321 65.2032 31.7147 66.3165 31.4668C66.0198 31.3344 65.7823 31.0517 65.6568 30.7446C65.5451 30.4723 65.4996 30.1859 65.4648 29.8929C65.4437 29.7182 65.43 29.5403 65.4052 29.3623C65.346 28.8983 65.2169 28.4095 64.868 28.0954C64.7596 27.9977 64.6238 27.9278 64.4806 27.886C64.8924 27.6137 65.1262 27.0868 65.1403 26.3083C64.5294 26.7308 63.6847 26.598 63.018 26.2698C62.3512 25.942 61.7755 25.4429 61.0984 25.1321C60.0931 24.6751 58.8925 24.6925 57.8839 25.1428C57.6885 25.024 57.4824 24.9226 57.2663 24.8564C56.54 24.6296 55.7164 24.7169 55.0571 25.0973C53.8597 24.7587 52.5821 24.9926 51.6993 25.8687C50.8161 26.7482 50.4532 28.1128 50.7813 29.3134C50.4672 29.1077 50.1494 28.8983 49.8356 28.6885C49.6469 29.1458 49.7446 29.7045 50.0728 30.0708C49.4375 29.9313 48.736 30.1441 48.2894 30.6155C48.6209 30.6854 48.9558 30.755 49.2873 30.8249C48.5965 31.1705 48.1429 31.9419 48.1777 32.7167Z" fill="#FCD18A"/>
<path d="M48.1777 32.7173C48.1987 33.1602 48.38 33.5931 48.6664 33.9316C49.4445 33.5476 49.9681 32.6788 49.9192 31.806C50.0517 32.0295 50.1845 32.2529 50.3207 32.4764C50.3799 31.8726 50.4358 31.2687 50.4953 30.6649C50.7429 30.965 50.9941 31.2654 51.242 31.5655C51.2945 30.5391 51.7026 29.5305 52.3797 28.7557C52.6347 28.9511 52.8929 29.1431 53.1475 29.3388C52.8648 28.7661 52.5718 28.1345 52.722 27.5166C52.8441 27.0245 53.2629 26.6197 53.7584 26.515C54.2542 26.4103 54.8021 26.6093 55.1129 27.0104C55.1266 26.529 55.5177 26.0854 55.9958 26.0159C56.4705 25.9426 56.9766 26.2497 57.1335 26.7033C57.7829 26.2985 58.6657 26.4661 59.2939 26.9057C59.9222 27.3456 60.3518 28.0087 60.7669 28.651C60.8472 28.2077 60.9275 27.7611 61.0078 27.3142C61.266 28.4379 62.2991 29.3351 63.4476 29.4328C63.217 29.0488 62.9902 28.6614 62.7597 28.2777C63.6847 28.7801 64.5853 29.3177 65.4648 29.8935C65.4437 29.7188 65.43 29.5409 65.4052 29.3629C65.346 28.8989 65.2169 28.4101 64.868 28.096C64.7596 27.9983 64.6238 27.9284 64.4806 27.8866C64.8924 27.6143 65.1262 27.0874 65.1403 26.3089C64.5294 26.7314 63.6847 26.5986 63.018 26.2704C62.3512 25.9426 61.7755 25.4435 61.0984 25.1327C60.0931 24.6757 58.8925 24.6931 57.8839 25.1434C57.6885 25.0246 57.4824 24.9232 57.2663 24.857C56.54 24.6302 55.7164 24.7175 55.0571 25.0979C53.8597 24.7593 52.5821 24.9932 51.6993 25.8693C50.8161 26.7488 50.4532 28.1134 50.7813 29.314C50.4672 29.1083 50.1494 28.8989 49.8356 28.6891C49.6469 29.1464 49.7446 29.7051 50.0728 30.0714C49.4375 29.9319 48.736 30.1447 48.2894 30.6161C48.6209 30.686 48.9558 30.7556 49.2873 30.8255C48.5965 31.1711 48.1429 31.9425 48.1777 32.7173Z" fill="#FDE498"/>
<path d="M53.0172 41.1738C51.6959 41.0699 50.7343 40.2862 50.2192 39.6298C50.1038 39.4818 50.0105 39.3405 49.941 39.2147C49.564 38.5305 49.4552 36.1577 50.4268 35.6061C51.1072 35.2205 51.6027 35.7803 51.8383 36.1511V36.1522C51.9386 36.3098 51.9923 36.4326 51.9923 36.4326L53.0172 41.1738Z" fill="#F9AA7F"/>
<path d="M53.0155 41.1738C51.6942 41.0699 50.7326 40.2862 50.2176 39.6298C50.1732 39.5632 50.1343 39.4992 50.101 39.4385C49.724 38.7544 49.6156 36.3816 50.5868 35.8307C51.1381 35.5176 51.5677 35.8255 51.8367 36.1511V36.1522C51.937 36.3098 51.9906 36.4326 51.9906 36.4326L53.0155 41.1738Z" fill="#F68672"/>
<path d="M50.1176 37.4925C50.0691 37.6823 50.0998 37.8795 50.1624 38.0671C50.4277 38.8634 51.2228 39.4713 51.9842 40.0352C51.7548 39.6492 51.6705 39.213 51.7175 38.7886C51.7338 38.6406 51.7656 38.4937 51.7667 38.3454C51.7726 37.7482 50.4055 36.3703 50.1176 37.4925Z" fill="#F36269"/>
<path d="M52.3692 40.2617L52.3255 40.2377C52.2981 40.2207 52.2537 40.1988 52.203 40.164C52.1009 40.096 51.9603 39.9868 51.8275 39.8248C51.6954 39.6634 51.5755 39.4481 51.5185 39.1928C51.4671 38.9382 51.4778 38.6419 51.6144 38.3562C51.6288 38.32 51.6491 38.2856 51.6699 38.2515L51.685 38.2264L51.6869 38.223L51.6865 38.2238L51.6873 38.2234L51.6876 38.2238L51.6854 38.2193L51.6728 38.1964L51.6473 38.1512L51.594 38.0624C51.5222 37.9459 51.4445 37.8364 51.3646 37.7343C51.2847 37.6329 51.2018 37.5389 51.12 37.4534C51.0375 37.3683 50.9584 37.2884 50.8792 37.2292C50.8007 37.1696 50.7138 37.1312 50.6328 37.1204C50.5514 37.1112 50.4748 37.1297 50.423 37.1552C50.3708 37.1815 50.3419 37.2151 50.3297 37.2399L50.3164 37.2799L50.319 37.2373C50.3242 37.2096 50.3449 37.1678 50.3971 37.1289C50.4492 37.0916 50.5303 37.056 50.6376 37.0534C50.7449 37.0523 50.8607 37.0882 50.9643 37.1467C51.0682 37.2055 51.1619 37.2788 51.2606 37.3591C51.3587 37.4405 51.4579 37.5319 51.5529 37.6336C51.6484 37.7357 51.7402 37.8478 51.8238 37.9696L51.8848 38.0621L51.9141 38.1098L51.9529 38.1771L51.9796 38.2245L51.9537 38.2719L51.9148 38.3392L51.8674 38.4302C51.7483 38.6777 51.722 38.9371 51.7442 39.1699C51.772 39.403 51.8504 39.6098 51.9459 39.7737C52.0413 39.938 52.1509 40.0604 52.233 40.1407C52.2737 40.1814 52.3107 40.2096 52.3333 40.2306L52.3692 40.2617Z" fill="#D03B58"/>
<path d="M74.4844 88.6231C71.0045 90.2371 66.6992 91.0037 62.6492 91.3219C62.3717 91.3441 62.0901 91.3626 61.8163 91.3811C55.2751 91.807 47.4492 91.5217 47.4492 91.5217C46.024 84.3844 45.5574 72.0016 45.4316 62.5063C45.3354 55.2913 45.4353 49.7383 45.4612 49.4235C45.5241 48.6979 53.8054 46.1327 53.8054 46.1327L58.9362 46.5286L68.002 49.7346C68.002 49.7346 68.8019 66.0154 68.5351 67.2852C68.3316 68.2513 71.8818 80.105 73.5919 85.7134C74.1288 87.4754 74.4844 88.6231 74.4844 88.6231Z" fill="#F8A043"/>
<path d="M74.4864 88.6233C71.0065 90.2372 66.7012 91.0039 62.6512 91.3221C62.3737 91.3443 62.0921 91.3628 61.8183 91.3813C55.2771 91.8068 47.4512 91.5219 47.4512 91.5219C46.026 84.3846 45.5594 72.0018 45.4336 62.5065L46.7737 60.2853C46.7737 60.2853 49.202 84.914 51.9859 86.8351C54.4257 88.516 69.7182 86.2579 73.5939 85.7136C74.1308 87.4755 74.4864 88.6233 74.4864 88.6233Z" fill="#F48C36"/>
<path d="M45.4615 49.4234C45.4615 49.4234 41.5006 50.4394 39.9803 53.856C38.6738 56.7919 35.5285 80.3535 39.3624 84.3525C43.1963 88.3518 59.5359 81.438 59.5359 81.438L57.892 77.5559L46.5903 76.7482L46.3258 62.975C46.3258 62.975 48.2986 54.6448 45.4615 49.4234Z" fill="#F68672"/>
<path d="M70.4688 27.75L75.4401 25.944L73.66 23.5986L70.4688 27.75Z" fill="#F9B040"/>
<path d="M70.0547 29.4167L72.8027 31.2852L73.4313 29.5665L70.0547 29.4167Z" fill="#F9B040"/>
<path d="M68.4961 26.5332L70.1171 23.4004L68.5612 22.7696L68.4961 26.5332Z" fill="#F9B040"/>
<path d="M71.2344 140.07C71.3931 140.198 75.4387 141.586 77.2236 141.506C79.0085 141.427 81.2296 141.51 81.2296 141.51C81.2296 141.51 80.9077 151.487 80.2402 151.296C79.5723 151.105 71.8689 151.105 71.8689 151.105L71.2344 140.07Z" fill="#FDE6D5"/>
<path d="M45.3718 137.999C45.4728 138.059 45.6075 138.133 45.7699 138.218C47.4198 139.074 51.9371 141.035 53.4582 141.158C55.1287 141.292 56.7156 140.595 56.7156 140.595C56.7156 140.595 55.3322 151.058 54.2958 151.987C53.2598 152.917 46.5562 149.913 45.5354 149.998C44.5149 150.083 45.3718 137.999 45.3718 137.999Z" fill="#FDE6D5"/>
<path d="M77.4348 74.1513C77.4348 74.5846 77.4015 75.0101 77.3386 75.4245C77.3234 75.5211 77.3053 75.6136 77.2905 75.7061C77.2791 75.7579 77.2683 75.806 77.2572 75.8578C76.9904 77.135 76.4428 78.305 75.6655 79.2932V79.2969C75.5911 79.3931 75.5134 79.4893 75.4357 79.5785C74.7878 80.337 74.0068 80.9815 73.1258 81.4699L73.0518 81.5106C73.0074 81.5328 72.9626 81.5587 72.9186 81.5809L72.8257 81.6253C71.6969 82.1992 70.4159 82.5215 69.061 82.5215C67.3138 82.5215 65.6958 81.9883 64.3561 81.074C62.6936 79.9411 61.4575 78.2273 60.9502 76.2244C60.8836 75.9651 60.8281 75.7024 60.7874 75.4323C60.7763 75.3694 60.7685 75.3098 60.7652 75.2473C60.7537 75.1951 60.7463 75.1433 60.7426 75.0915L60.7393 75.0656C60.7319 75.0064 60.7282 74.9435 60.7245 74.8806C60.7056 74.7141 60.6949 74.5435 60.6949 74.3733C60.6875 74.2993 60.6875 74.2253 60.6875 74.1513C60.6875 73.5035 60.7611 72.8741 60.9021 72.2669C60.9206 72.1744 60.9428 72.0856 60.9687 71.9968C60.9909 71.9191 61.0131 71.8377 61.039 71.7563C61.0501 71.719 61.0575 71.682 61.0723 71.6487C61.4575 70.4051 62.1235 69.2906 63.0007 68.3727C63.0603 68.3098 63.1195 68.2502 63.1824 68.1914C63.2712 68.1026 63.3563 68.0208 63.4488 67.9394C64.1596 67.2952 64.9777 66.7735 65.8771 66.4032C65.9737 66.3662 66.0699 66.3292 66.1661 66.2922C66.2549 66.2589 66.3552 66.2219 66.4514 66.1923C66.4847 66.1812 66.5176 66.1701 66.5546 66.1627C66.7178 66.1068 66.8843 66.0628 67.0508 66.0217C67.6949 65.8626 68.3687 65.7775 69.061 65.7775C72.5075 65.7775 75.4653 67.858 76.7499 70.8306C76.9608 71.3157 77.1236 71.8229 77.2387 72.352C77.2646 72.456 77.2864 72.5814 77.3053 72.6854C77.3904 73.1627 77.4348 73.6515 77.4348 74.1513Z" fill="#FCE4A7"/>
<path d="M72.8211 81.6252L72.9139 81.5808C72.8843 81.5956 72.8547 81.6104 72.8211 81.6289V81.6252Z" fill="#D6C5BB"/>
<path d="M69.06 82.5215C67.3128 82.5215 65.6948 81.9883 64.3551 81.074C62.6927 79.9411 61.4565 78.2273 60.9492 76.2244C62.2265 77.135 63.6628 77.8088 65.1842 78.1566L65.199 78.1607C65.3544 78.1977 65.5098 78.2273 65.6656 78.2569C65.754 78.2713 65.8432 78.2861 65.932 78.3009C66.453 78.3834 66.9799 78.423 67.5086 78.423C67.694 78.423 67.879 78.4182 68.0643 78.4086C68.1864 78.4049 68.3122 78.3938 68.4347 78.3827C68.6193 78.3679 68.801 78.3457 68.9823 78.3198C69.1488 78.2976 69.3153 78.2713 69.4785 78.2384C71.159 77.9198 72.747 77.1868 74.0206 76.0469C74.2837 75.8097 74.5353 75.5544 74.761 75.2839C75.0829 74.9139 75.3681 74.5143 75.616 74.0921C76.0419 73.3851 76.3638 72.6151 76.564 71.8155C76.5862 71.723 76.6084 71.6339 76.6269 71.5414C76.6787 71.3083 76.7194 71.0711 76.749 70.8306C76.9599 71.3157 77.1227 71.8229 77.2377 72.352C77.2636 72.456 77.2855 72.5814 77.3043 72.6854C77.3894 73.1627 77.4338 73.6515 77.4338 74.1513C77.4338 74.5846 77.4005 75.0101 77.3376 75.4245C77.3225 75.5211 77.3043 75.6136 77.2895 75.7061C77.2781 75.7579 77.2673 75.806 77.2562 75.8578C76.9895 77.135 76.4419 78.305 75.6645 79.2932V79.2969C75.5901 79.3931 75.5124 79.4893 75.4347 79.5785C74.7869 80.337 74.0058 80.9815 73.1248 81.4699L73.0508 81.5106C73.0064 81.5328 72.9616 81.5587 72.9176 81.5809L72.8247 81.6253C72.6912 81.6934 72.5554 81.7578 72.4177 81.8185C71.3917 82.271 70.2547 82.5215 69.06 82.5215Z" fill="#F9D381"/>
<path d="M74.6937 75.4247C73.7276 77.3051 72.4429 78.8935 71.7766 79.6857C71.3248 79.7671 70.8623 79.8115 70.3994 79.8115C69.7442 79.8115 68.9631 79.7153 68.3337 79.5521C68.7037 79.1562 69.0889 78.7155 69.4778 78.2382C71.71 75.5061 74.0347 71.6263 74.1716 68.5131C74.9527 69.2461 75.6893 70.2788 76.0967 71.2711C75.8414 72.5632 75.4081 73.9991 74.7603 75.2838C74.7418 75.3322 74.7159 75.38 74.6937 75.4247ZM66.0571 78.3936C66.0164 78.3603 65.972 78.3307 65.9313 78.3008C65.8943 78.2712 65.861 78.2456 65.8277 78.2197C65.8425 78.1531 65.861 78.0714 65.8869 77.9715C65.9461 77.731 66.0312 77.398 66.1533 76.9906C66.194 76.8574 66.2384 76.7127 66.2865 76.561C66.4086 76.1762 66.557 75.7429 66.7346 75.2727C67.1901 74.0624 67.8339 72.5961 68.7374 71.0636C70.4068 68.2282 71.3803 67.2951 71.6915 67.0472C72.3501 67.2211 73.3387 67.8394 73.8645 68.3281C73.8867 68.8276 73.8201 70.8009 71.9061 74.0661C70.792 75.9686 69.7331 77.398 68.9816 78.3196C68.767 78.586 68.5742 78.8117 68.4114 78.9897C68.2486 79.1821 68.1154 79.3227 68.0266 79.4115C67.4454 79.2043 66.638 78.7969 66.0571 78.3936ZM63.4138 75.2249C63.3953 75.1839 63.3768 75.1395 63.3583 75.0988C63.5211 74.6544 63.7139 74.1401 63.9396 73.5884C64.1764 73.0035 64.4469 72.3778 64.7466 71.7525C64.9834 71.2526 65.2427 70.7528 65.5128 70.2755C66.4608 68.5945 67.5896 67.1508 68.0007 66.625C69.1037 66.4474 70.3291 66.5991 71.3803 66.9251C68.9927 69.198 67.3677 72.4485 66.4012 75.1802C66.2236 75.6763 66.0719 76.1573 65.9387 76.6128C65.9017 76.7353 65.8684 76.8574 65.8351 76.9758C65.7352 77.3495 65.646 77.7014 65.5757 78.027L65.5646 78.0714L65.5313 78.0418C64.6726 77.3014 63.8841 76.2909 63.4138 75.2249ZM75.6153 74.092L75.6042 74.0883C75.9561 73.1407 76.1559 72.3112 76.2965 71.5227C76.2965 71.5227 76.4075 71.6448 76.5633 71.8154C76.7964 72.0781 77.1294 72.4592 77.3036 72.6853C77.2848 72.5813 77.2629 72.4559 77.237 72.3519C77.0998 72.141 76.8667 71.8228 76.6262 71.5412C76.5263 71.4302 76.4297 71.3266 76.3372 71.2378L76.3076 71.1453C75.7892 69.8903 74.6715 68.5982 73.9052 68.0429C73.1352 67.4875 72.5909 67.1138 71.8136 66.8178C70.9437 66.4918 70.018 66.3401 69.0297 66.3401C68.6486 66.3401 68.0411 66.366 67.9042 66.4215C67.438 66.2291 66.9307 66.1625 66.5533 66.1625H66.5422L66.4497 66.1921C66.3531 66.2217 66.2532 66.2587 66.1644 66.292C66.3531 66.3031 66.6458 66.3142 66.7605 66.329C66.9381 66.3549 67.3676 66.4511 67.7043 66.5991C67.6932 66.6143 66.3531 68.1502 65.972 68.8239C65.972 68.8239 65.4018 68.4317 64.9834 68.2797C64.6504 68.1616 63.8656 68.0022 63.4471 67.9393C63.3546 68.0207 63.2695 68.1024 63.1807 68.1912C64.4654 68.3022 65.1169 68.6241 65.8277 69.1314C65.7722 69.2239 64.8502 70.7454 64.6874 71.0562C63.177 71.0602 62.1255 71.1934 61.0706 71.6485H61.0669C61.0558 71.6859 61.0447 71.7188 61.0373 71.7562C61.0114 71.8376 60.9892 71.919 60.967 71.9967C61.2704 71.8376 61.9812 71.5634 62.8218 71.4598C63.4434 71.3858 64.2101 71.3488 64.532 71.3932C64.4469 71.5486 64.3651 71.7155 64.28 71.8894C63.9877 72.5003 63.6954 73.1962 63.473 73.7549C63.2325 74.3547 63.0734 74.7954 63.0734 74.7954L63.0512 74.788C62.7145 74.6992 62.174 74.4953 61.7 74.5545C61.2704 74.6067 60.9448 74.7658 60.7228 74.8805L60.7188 74.8842C60.7228 74.9471 60.7302 75.0063 60.7376 75.0655L60.7413 75.0914C60.7446 75.1472 60.752 75.1987 60.7594 75.2505L60.7635 75.2471C60.8893 75.1025 61.1705 74.8398 61.737 74.8509C62.1847 74.862 62.6957 74.9952 63.0364 75.1025H63.0401C63.066 75.1654 63.0919 75.2283 63.1215 75.2915C63.5918 76.3908 64.3026 77.3754 65.1909 78.1531L65.1983 78.1605C65.276 78.2308 65.3574 78.2974 65.4425 78.364C65.5054 78.4158 65.5683 78.4639 65.6312 78.512C66.2976 79.0156 67.0491 79.4152 67.8527 79.689L67.9082 79.7079C68.693 79.9669 69.5296 80.1075 70.3994 80.1075C70.9252 80.1075 71.3914 80.0076 71.8876 79.9114L71.9505 79.8966L72.5465 80.6665C72.8873 81.1331 72.8725 81.455 72.824 81.6252V81.6289C72.9021 81.5882 72.9757 81.5512 73.0501 81.5105L73.1241 81.4698C73.1352 81.3773 73.1278 81.344 73.1204 81.2626C73.0871 81.0443 72.9946 80.7775 72.7833 80.4889L72.1725 79.6598C72.1725 79.6598 72.7759 78.986 73.3091 78.2712C73.8497 77.553 74.3126 76.7501 74.3159 76.7501C74.4828 77.0424 74.8528 77.6533 75.0973 78.1195C75.3822 78.6674 75.4414 79.2857 75.434 79.5784C75.5117 79.4892 75.5894 79.393 75.6638 79.2968V79.2931C75.7189 78.1565 74.8306 77.0461 74.4976 76.4685C74.5124 76.4426 75.4229 74.5771 75.5006 74.4065C76.4223 74.8953 76.9481 75.3504 77.2555 75.8576C77.2666 75.8058 77.2774 75.7577 77.2888 75.7059C77.3036 75.6134 77.3218 75.5209 77.3369 75.4247C76.8334 74.7251 75.7415 74.1586 75.6153 74.092ZM63.9396 73.5884C63.762 73.655 63.6025 73.7105 63.473 73.7549C63.2325 74.3547 63.0734 74.7954 63.0734 74.7954L63.0512 74.788L63.0364 75.1025H63.0401C63.066 75.1654 63.0919 75.2283 63.1215 75.2915L63.4138 75.2249C63.3953 75.1839 63.3768 75.1395 63.3583 75.0988C63.5211 74.6544 63.7139 74.1401 63.9396 73.5884ZM65.8351 76.9758C65.7352 77.3495 65.646 77.7014 65.5757 78.027C65.6719 78.0048 65.7796 77.9863 65.8869 77.9715C65.9461 77.731 66.0312 77.398 66.1533 76.9906C66.0423 76.9795 65.935 76.9758 65.8351 76.9758Z" fill="#D8A161"/>
<path d="M68.434 78.3842C68.434 78.473 68.434 78.5581 68.4299 78.6432C68.4262 78.6839 68.4262 78.7246 68.4299 78.7616V78.7653C68.4262 78.843 68.4188 78.9207 68.4114 78.9914C68.404 79.1098 68.3892 79.2171 68.367 79.317C68.3337 79.4909 68.2856 79.6245 68.2079 79.7096L67.8527 79.6907L65.7607 79.576C65.7607 79.576 65.0611 80.3574 64.3544 81.0756C63.7916 81.6532 63.2251 82.1897 63.0068 82.26C62.8144 82.3229 61.9405 82.1194 60.9633 81.8563C60.8597 81.8267 60.7561 81.7975 60.6521 81.7679C60.4079 81.6939 60.1634 81.6195 59.9266 81.5529L59.901 81.5455C59.7823 81.5085 59.6602 81.4752 59.5381 81.4382L57.8945 77.5547C57.9167 77.5177 58.4014 77.1292 58.8162 76.7921C59.1233 76.5442 59.3934 76.3222 59.4123 76.2889C59.5603 76.037 59.7416 75.7484 59.9488 75.4376L59.9599 75.4191C60.0971 75.2226 60.2377 75.008 60.3857 74.7971C60.4856 74.6561 60.5892 74.5159 60.6932 74.3749C61.1631 73.7455 61.6852 73.1498 62.1962 72.7462C62.4626 72.5353 62.7253 72.3725 62.9695 72.2944C63.3694 72.1686 63.8212 72.0243 64.28 71.8911C64.4358 71.8426 64.5912 71.7982 64.7466 71.7542C66.1163 71.3727 67.4416 71.1211 67.6599 71.5877C67.8893 72.0872 65.3241 73.094 63.9396 73.5901C63.762 73.6567 63.6025 73.7122 63.473 73.7566C63.2325 73.8417 63.0882 73.8902 63.0882 73.8902L63.0512 74.7897L63.0364 75.1042L63.029 75.3154L63.1215 75.2932L63.4138 75.2266L65.1317 74.8304L66.4012 75.1819L66.7346 75.2744L68.1709 75.6706C68.1709 75.6706 68.2671 76.2741 68.3448 77.0182V77.0219C68.3522 77.0885 68.3596 77.1551 68.3633 77.2254V77.2439L68.367 77.3068C68.3781 77.3882 68.3855 77.4807 68.3892 77.5662C68.4114 77.84 68.4299 78.1212 68.434 78.3842Z" fill="#F68672"/>
<path d="M68.3432 77.0198C68.3536 77.113 68.3617 77.2085 68.371 77.3047L68.3073 77.2943C67.9477 77.2281 67.46 77.146 66.9317 77.069C66.4011 76.9943 65.919 76.9595 65.5538 76.9743C65.4617 76.9791 65.3795 76.9824 65.3063 76.9869C65.2319 76.9965 65.1679 77.0057 65.1161 77.012C65.0088 77.0257 64.9492 77.0327 64.9492 77.0327C64.9492 77.0327 64.9992 76.9994 65.0954 76.9402C65.1442 76.9121 65.2038 76.8751 65.2756 76.8374C65.3477 76.8048 65.4324 76.7697 65.526 76.7323C65.9038 76.5895 66.467 76.4962 67.0471 76.5784C67.5847 76.6564 68.0317 76.8448 68.3432 77.0198Z" fill="#D03B58"/>
<path d="M68.428 78.6418C68.4291 78.6818 68.4268 78.7229 68.4268 78.7617C68.3262 78.7432 68.1945 78.7173 68.0361 78.6873C67.6765 78.6215 67.1885 78.5394 66.6594 78.4617C66.1299 78.3877 65.6478 78.3529 65.2822 78.3677C65.1905 78.3721 65.1072 78.3769 65.0332 78.3802C64.9596 78.391 64.8959 78.398 64.8438 78.4065C64.7376 78.4187 64.6758 78.4261 64.6758 78.4261C64.6758 78.4261 64.7268 78.3917 64.8245 78.3333C64.8719 78.304 64.9329 78.2685 65.0032 78.2297C65.0761 78.1978 65.159 78.1631 65.2548 78.1257C65.6304 77.9829 66.1935 77.8893 66.7752 77.9707C67.3538 78.0561 67.8271 78.2685 68.1423 78.4539C68.2589 78.5234 68.3536 78.5878 68.428 78.6418Z" fill="#D03B58"/>
<path d="M51.2117 59.283C51.1721 58.5381 50.8935 58.2429 50.5139 58.2629C50.1394 58.2828 49.893 58.6062 49.9326 59.3507C49.9718 60.0958 50.2504 60.3915 50.6252 60.3715C51.0048 60.3511 51.2509 60.0281 51.2117 59.283ZM49.1641 59.3914C49.1071 58.3091 49.674 57.6635 50.4802 57.6209C51.2905 57.578 51.918 58.1604 51.9754 59.2426C52.0323 60.3252 51.4699 60.9705 50.6593 61.0134C49.8534 61.056 49.2214 60.4736 49.1641 59.3914Z" fill="#FCE4A7"/>
<path d="M53.4969 57.5179L53.6704 60.7979L52.9112 60.8379L52.7702 58.1672L52.1142 58.2016L52.082 57.5926L53.4969 57.5179Z" fill="#FCE4A7"/>
<path d="M119.511 45.5653C116.725 46.2516 109.417 55.5016 108.891 58.2271C108.365 60.9525 106.941 70.268 106.941 70.268L95.2351 71.5759L94.3086 75.8964C94.3086 75.8964 102.283 78.1601 105.578 78.6133C108.873 79.0666 111.708 77.7942 111.708 77.7942L119.511 45.5653Z" fill="#F36269"/>
<path d="M105.332 154.539C105.358 154.23 105.477 153.862 105.86 153.657C106.979 153.058 111.106 151.151 112.188 150.162C113.027 149.395 113.697 147.817 113.954 147.149L121.888 146.92C122.502 148.899 123.102 152.757 123.224 153.565L105.332 154.539Z" fill="#FF9A62"/>
<path d="M105.42 156.303L123.312 155.329L123.224 153.565L105.332 154.539L105.42 156.303Z" fill="#FDE6D5"/>
<path d="M113.717 150.575L113.756 150.634C113.851 150.784 113.919 151.018 113.717 151.122C113.613 151.176 113.489 151.168 113.374 151.153C112.977 151.099 112.605 150.953 112.249 150.779C111.866 150.592 111.457 150.388 111.196 150.043C110.926 149.686 111.253 149.32 111.683 149.384C112.427 149.493 113.286 149.951 113.717 150.575Z" fill="#FDE6D5"/>
<path d="M112.42 151.592L112.459 151.652C112.554 151.801 112.622 152.036 112.42 152.14C112.316 152.193 112.192 152.186 112.077 152.17C111.68 152.117 111.309 151.97 110.952 151.796C110.569 151.609 110.16 151.406 109.899 151.06C109.629 150.703 109.957 150.338 110.387 150.401C111.13 150.511 111.989 150.969 112.42 151.592Z" fill="#FDE6D5"/>
<path d="M110.795 152.305L110.834 152.365C110.929 152.514 110.998 152.749 110.795 152.853C110.691 152.906 110.567 152.899 110.452 152.883C110.055 152.83 109.684 152.683 109.327 152.509C108.944 152.322 108.535 152.119 108.274 151.773C108.004 151.416 108.332 151.051 108.762 151.114C109.505 151.224 110.364 151.682 110.795 152.305Z" fill="#FDE6D5"/>
<path d="M119.368 84.5516L113.837 83.5137L113.668 84.246C114.868 84.6929 116.078 84.9371 117.237 84.8698C117.947 84.7758 118.657 84.6674 119.368 84.5516Z" fill="#46689C"/>
<path d="M107.781 110.159C107.668 110.817 107.565 111.454 107.477 112.061C108.452 111.794 109.415 111.461 110.367 111.084C109.5 110.797 108.638 110.492 107.781 110.159Z" fill="#4C5F6B"/>
<path d="M125.145 99.4278C126.215 96.0419 127.244 92.8429 128.015 90.4656C128.204 89.8895 128.372 89.3604 128.525 88.8905C129.023 87.348 129.329 86.4245 129.329 86.4245L128.476 86.2598L119.37 84.5512C118.66 84.667 117.95 84.7754 117.239 84.8694C116.08 84.9367 114.87 84.6925 113.67 84.2455L113.038 86.9743L111.769 92.4603C111.769 92.4603 109.067 102.679 107.781 110.159C108.638 110.491 109.501 110.797 110.368 111.084C113.79 112.216 117.28 113.054 120.759 114.004C121.786 110.234 123.509 104.62 125.146 99.4315L125.145 99.4278Z" fill="#637C8C"/>
<path d="M119.535 113.672L119.536 113.675C119.242 114.751 119.053 117.1 118.891 117.822L120.129 129.864L121.888 146.922L113.865 147.371L112.024 140.155C112.024 140.155 110.817 135.712 109.691 130.466C108.692 125.811 107.758 120.525 107.79 117.136C107.8 116.139 108.472 113.182 108.692 111.695C109.603 111.446 109.44 111.455 110.202 111.148C110.252 111.129 110.308 111.108 110.368 111.083C110.798 111.224 111.207 111.357 111.603 111.481L111.654 111.495C112.821 111.863 113.874 112.161 114.93 112.447C115.288 112.544 115.646 112.64 116.008 112.736C117.074 113.017 118.181 113.305 119.453 113.652L119.535 113.672Z" fill="#F68672"/>
<path d="M120.13 129.864L121.888 146.922L113.865 147.371L112.025 140.155C112.025 140.155 110.817 135.712 109.691 130.466C111.105 130.939 113.168 131.542 114.245 131.407C115.433 131.261 118.392 130.397 120.13 129.864Z" fill="#FDE6D5"/>
<path d="M123.338 96.8899L118.852 113.492C119.486 113.66 120.121 113.831 120.756 114.004C121.783 110.234 123.505 104.616 125.142 99.4285L123.338 96.8899Z" fill="#4C5F6B"/>
<path d="M151.776 143.49C151.616 143.224 151.498 142.856 151.688 142.465C152.244 141.325 154.475 137.363 154.773 135.929C155.005 134.816 154.624 133.144 154.442 132.452L160.742 127.623C162.398 128.868 165.142 131.645 165.713 132.229L151.776 143.49Z" fill="#FF9A62"/>
<path d="M152.881 144.869L166.819 133.608L165.715 132.23L151.777 143.491L152.881 144.869Z" fill="#FDE6D5"/>
<path d="M156.258 135.367L156.324 135.393C156.489 135.458 156.681 135.609 156.578 135.812C156.526 135.916 156.421 135.982 156.318 136.037C155.965 136.226 155.578 136.324 155.187 136.392C154.767 136.464 154.317 136.539 153.903 136.412C153.474 136.28 153.526 135.792 153.912 135.592C154.579 135.245 155.544 135.114 156.258 135.367Z" fill="#FDE6D5"/>
<path d="M155.801 136.952L155.867 136.977C156.032 137.042 156.225 137.192 156.121 137.396C156.068 137.499 155.964 137.566 155.861 137.621C155.508 137.81 155.121 137.909 154.73 137.976C154.31 138.048 153.86 138.123 153.445 137.996C153.017 137.864 153.069 137.376 153.455 137.176C154.122 136.829 155.087 136.698 155.801 136.952Z" fill="#FDE6D5"/>
<path d="M154.899 138.481L154.965 138.506C155.13 138.572 155.322 138.722 155.219 138.925C155.166 139.029 155.061 139.095 154.959 139.15C154.605 139.339 154.219 139.438 153.828 139.505C153.407 139.578 152.958 139.652 152.544 139.525C152.115 139.393 152.167 138.906 152.553 138.705C153.22 138.358 154.184 138.227 154.899 138.481Z" fill="#FDE6D5"/>
<path d="M126.193 81.8097L125.332 83.3633C126.893 83.0029 128.453 82.6114 130.011 82.1985L126.193 81.8097Z" fill="#46689C"/>
<path d="M138.148 103.825L135.64 83.2221L133.98 82.9169L130.131 82.2102L130.009 82.1976C128.451 82.6105 126.891 83.002 125.33 83.3624L124.125 85.5358L121.508 90.2662L122.272 93.2887C122.272 93.2887 123.781 104.234 125.976 110.676C128.072 109.513 130.643 109.236 132.713 107.395C134.472 106.106 136.232 104.819 138.148 103.825Z" fill="#637C8C"/>
<path d="M161.365 128.12L159.972 129.067L154.443 132.453C154.443 132.453 146.22 128.116 138.752 123.273L138.739 123.264C133.838 120.084 129.265 116.691 127.55 114.159C126.998 113.344 126.471 112.123 125.977 110.675C128.073 109.515 130.644 109.239 132.715 107.396C132.768 107.356 132.825 107.316 132.875 107.278C134.495 106.078 134.898 105.578 136.741 104.622L136.754 104.612L136.755 104.616L136.918 109.564L145.502 115.008L147.813 116.477L161.365 128.12Z" fill="#F68672"/>
<path d="M161.364 128.12L159.971 129.067L154.441 132.453C154.441 132.453 146.219 128.116 138.751 123.273L138.738 123.264C141.172 121.412 145.501 115.008 145.501 115.008L147.812 116.477L161.364 128.12Z" fill="#FDE6D5"/>
<path d="M135.64 83.2227L133.98 82.9174C134.382 86.7825 135.601 98.2869 136.516 104.758C137.05 104.427 137.592 104.114 138.149 103.826L135.64 83.2227Z" fill="#4C5F6B"/>
<path d="M139.905 57.6909C139.531 63.057 138.97 68.2559 138.97 68.2559C138.97 68.2559 139.705 80.0944 140.588 86.1853C132.846 88.3521 124.197 86.9594 116.36 87.9969C114.263 88.1175 112.703 84.7331 110.788 82.9071C110.564 82.6899 110.332 82.4968 110.098 82.334C111.851 67.4426 114.189 51.3779 114.744 50.5136C115.753 48.9411 120.316 45.4343 120.316 45.4343L133.208 42.8376C133.208 42.8376 138.577 44.0867 139.841 46.2409C140.459 47.2924 140.268 52.5671 139.905 57.6909Z" fill="#B4E1FF"/>
<path d="M134.995 55.7564C135.248 57.2416 134.245 58.655 132.76 58.9081C131.271 59.1615 129.861 58.1588 129.608 56.6733C129.568 56.4361 129.561 56.1971 129.582 55.9681C129.688 54.7633 130.592 53.7347 131.843 53.5216C133.091 53.3092 134.287 53.9804 134.786 55.0823C134.882 55.2913 134.955 55.5192 134.995 55.7564Z" fill="#FDE6D5"/>
<path d="M134.786 55.0826C134.68 56.2869 133.773 57.3167 132.525 57.529C131.273 57.7422 130.082 57.0702 129.582 55.9684C129.689 54.7636 130.592 53.7351 131.843 53.5219C133.091 53.3096 134.287 53.9807 134.786 55.0826Z" fill="#FBCAAB"/>
<path d="M139.902 57.6909C139.528 63.057 138.967 68.2559 138.967 68.2559C138.967 68.2559 139.702 80.0944 140.585 86.1853C132.843 88.3521 124.194 86.9594 116.357 87.9969C114.259 88.1175 112.7 84.7331 110.785 82.9071C117.589 81.8012 136.448 80.3482 136.448 80.3482L135.698 71.133L139.902 57.6909Z" fill="#A4CDE8"/>
<path d="M129.62 42.1723C129.486 42.3147 123.535 46.9941 123.535 46.9941C123.535 46.9941 123.594 44.2173 123.618 42.771C123.624 42.3233 123.628 42.0028 123.626 41.9322C123.609 41.3546 123.043 38.8678 123.043 38.8678L129.098 35.8804C129.098 35.8804 129.233 37.1436 129.368 38.5382C129.531 40.2202 129.694 42.0939 129.62 42.1723Z" fill="#F68672"/>
<path d="M129.368 38.5387C127.699 39.8267 124.023 42.6461 123.651 42.7637L123.618 42.7715C123.624 42.3238 123.628 42.0034 123.626 41.9327C123.609 41.3551 123.043 38.8684 123.043 38.8684L129.098 35.881C129.098 35.881 129.233 37.1442 129.368 38.5387Z" fill="#F36269"/>
<path d="M129.946 36.0703C129.946 36.0703 129.806 36.518 129.138 37.1448H129.136C129 37.2736 128.84 37.4097 128.656 37.5511C127.951 38.0887 121.294 41.1756 120.251 41.0675C119.209 40.9595 118.125 37.419 118.06 37.0453C117.658 34.752 116.531 27.6621 116.531 27.6621C118.866 19.831 128.124 23.5791 129.185 24.3106C130.246 25.0417 129.946 36.0703 129.946 36.0703Z" fill="#F68672"/>
<path d="M129.135 37.1448C128.999 37.2736 128.839 37.4097 128.655 37.5511C127.95 38.0887 121.293 41.1756 120.25 41.0675C119.207 40.9595 118.124 37.419 118.059 37.0453C118.751 38.5941 119.546 40.7405 120.279 40.6495C121.385 40.5133 128.329 37.5995 129.135 37.1448Z" fill="#F9AA7F"/>
<path d="M131.345 29.2096C131.359 29.6403 131.34 30.0643 131.291 30.4776C130.53 30.8099 129.896 31.4259 129.54 32.1777C129.715 30.5952 129.226 28.9628 128.3 27.6711C125.094 28.6894 121.508 28.2439 118.587 26.577C118.788 28.5044 118.297 30.4939 117.221 32.1026C116.795 31.6753 116.441 31.1832 116.171 30.6456C115.781 29.8741 115.567 29.0131 115.555 28.1495C115.536 26.6836 116.105 25.2206 117.11 24.1521C119.503 21.6242 123.444 20.1431 126.669 21.4522C129.509 22.601 131.256 26.048 131.345 29.2096Z" fill="#300C21"/>
<path d="M131.345 29.2105C131.289 29.1606 131.233 29.1106 131.177 29.0603C129.505 27.5899 127.523 26.1169 125.306 26.2997C125.675 26.6934 126.048 27.0867 126.421 27.48C123.373 27.6332 120.282 26.7818 117.741 25.0858C118.405 27.0257 117.726 29.3334 116.171 30.6465C115.865 30.0393 115.665 29.3785 115.59 28.7044C115.57 28.5212 115.558 28.3325 115.555 28.1505C115.539 26.8865 115.96 25.6274 116.718 24.6247C116.841 24.4571 116.972 24.2995 117.11 24.153C117.228 24.0294 117.35 23.9055 117.473 23.7893C119.889 21.4879 123.602 20.2084 126.669 21.4531C128.144 22.0481 129.324 23.2646 130.131 24.7394C130.876 26.1058 131.301 27.6895 131.345 29.2105Z" fill="#470A27"/>
<path d="M115.555 28.1512C115.539 26.8873 115.96 25.6281 116.718 24.6254C116.741 25.2489 116.724 25.8712 116.614 26.4854C116.465 27.2931 116.13 28.0968 115.59 28.7051C115.57 28.5219 115.558 28.3332 115.555 28.1512Z" fill="#630D30"/>
<path d="M128.042 25.7183C126.276 24.8122 124.295 24.3272 122.31 24.3079C122.672 24.8933 123.034 25.4789 123.396 26.0684C121.255 25.9011 119.175 25.0916 117.473 23.7892C119.888 21.4878 123.602 20.2083 126.669 21.453C128.144 22.0479 129.324 23.2645 130.131 24.7393C129.138 24.4596 128.111 24.305 127.079 24.2857C127.399 24.7638 127.722 25.2407 128.042 25.7183Z" fill="#630D30"/>
<path d="M117.961 30.4336C117.961 30.4336 118.305 28.3871 119.223 28.6561C120.14 28.9247 119.894 29.1286 119.894 29.1286L117.961 30.4336Z" fill="#470A27"/>
<path d="M125.865 28.9199C125.865 28.9199 123.096 26.7872 122.362 27.8921C121.933 28.5373 122.38 28.827 122.38 28.827L125.865 28.9199Z" fill="#470A27"/>
<path d="M126.493 31.4461C126.493 31.4461 125.003 30.0305 123.359 31.6289C123.359 31.6289 123.44 30.2777 124.888 30.2758C126.336 30.2743 126.493 31.4461 126.493 31.4461Z" fill="#121414"/>
<path d="M119.826 31.9137C119.826 31.9137 118.794 31.2081 117.816 32.4258C117.816 32.4258 117.909 31.5592 118.716 31.3154C119.522 31.0716 119.826 31.9137 119.826 31.9137Z" fill="#121414"/>
<path d="M124.547 37.2988C123.944 37.6244 123.195 37.6688 122.559 37.4157C122.787 37.7276 123.098 37.9059 123.483 37.8804C123.868 37.8545 124.295 37.5914 124.547 37.2988Z" fill="#F14568"/>
<path d="M119 34.8832C118.902 35.1704 118.289 35.2211 117.632 34.9968C116.974 34.7726 116.521 34.3578 116.619 34.0711C116.717 33.7836 117.329 33.7329 117.987 33.9575C118.644 34.1817 119.097 34.5965 119 34.8832Z" fill="#F36269"/>
<path d="M127.141 33.3172C127.264 33.7423 126.575 34.3162 125.602 34.5989C124.628 34.8819 123.739 34.7665 123.616 34.3414C123.492 33.9166 124.181 33.3427 125.154 33.0597C126.127 32.777 127.017 32.8921 127.141 33.3172Z" fill="#F36269"/>
<path d="M125.929 35.3328C125.929 35.3328 125.889 35.392 125.818 35.4952C125.747 35.601 125.629 35.7439 125.466 35.9063C125.144 36.2319 124.602 36.6115 123.915 36.8076C123.226 37.0007 122.566 36.9615 122.121 36.8524C121.898 36.7995 121.722 36.7395 121.606 36.6866C121.492 36.6359 121.426 36.6067 121.426 36.6067C121.426 36.6067 121.497 36.6178 121.62 36.6363C121.743 36.6592 121.924 36.677 122.144 36.6877C122.585 36.711 123.189 36.6652 123.824 36.4872C124.458 36.3059 124.997 36.0291 125.36 35.7779C125.542 35.6539 125.687 35.5433 125.78 35.4597C125.875 35.3794 125.929 35.3328 125.929 35.3328Z" fill="#F14568"/>
<path d="M122.457 33.7881C122.388 33.5081 122.411 33.4559 122.218 33.2417C122.121 33.6823 122.037 33.7604 121.662 34.0094C121.36 34.2096 120.997 34.0978 120.836 34.059L121.141 34.7324C121.277 34.7342 121.445 34.6565 121.527 34.6095C121.77 34.4689 122.013 34.3284 122.256 34.1878C122.341 34.1385 122.433 34.0816 122.464 33.9883C122.485 33.9239 122.473 33.854 122.457 33.7881Z" fill="#F36269"/>
<path d="M122.534 33.9777C122.128 34.5057 121.504 34.8616 120.843 34.9434C120.554 33.5473 120.542 32.0947 120.808 30.6943C120.822 31.9301 120.984 33.1581 121.276 34.3588C121.617 34.2141 122.194 34.1223 122.534 33.9777Z" fill="#F14568"/>
<path d="M128.965 36.373C130.35 36.2228 131.337 35.3696 131.858 34.664C131.975 34.5049 132.068 34.3532 132.137 34.2189C132.513 33.4882 132.553 30.991 131.516 30.4412C130.788 30.0564 130.285 30.6602 130.049 31.0569V31.0584C129.948 31.2271 129.896 31.3581 129.896 31.3581L128.965 36.373Z" fill="#F9AA7F"/>
<path d="M128.965 36.373C130.35 36.2228 131.337 35.3696 131.858 34.664C131.902 34.5922 131.941 34.5242 131.974 34.4594C132.35 33.7287 132.39 31.2312 131.352 30.6821C130.763 30.3702 130.321 30.7069 130.049 31.0569V31.0584C129.948 31.2271 129.896 31.3581 129.896 31.3581L128.965 36.373Z" fill="#F68672"/>
<path d="M131.895 32.412C131.952 32.6099 131.926 32.819 131.866 33.0177C131.612 33.8628 130.795 34.5262 130.012 35.1426C130.241 34.7297 130.317 34.2686 130.254 33.8239C130.232 33.6689 130.194 33.5153 130.188 33.3595C130.163 32.732 131.558 31.2417 131.895 32.412Z" fill="#F36269"/>
<path d="M129.617 35.3926L129.662 35.3656C129.69 35.3471 129.736 35.3226 129.789 35.2849C129.894 35.2102 130.039 35.091 130.173 34.9168C130.307 34.7429 130.426 34.5127 130.478 34.2426C130.524 33.9736 130.504 33.6621 130.351 33.3661C130.335 33.3287 130.313 33.2932 130.29 33.258L130.273 33.2318L130.271 33.2288L130.271 33.2295L130.271 33.2292L130.272 33.2247L130.285 33.2003L130.311 33.1518L130.363 33.0571C130.436 32.9321 130.514 32.8148 130.595 32.7053C130.675 32.5957 130.76 32.4947 130.843 32.4022C130.927 32.3101 131.008 32.2239 131.089 32.1592C131.17 32.094 131.26 32.0507 131.345 32.037C131.43 32.0252 131.511 32.0422 131.566 32.0674C131.623 32.0933 131.654 32.1273 131.667 32.1532L131.683 32.1947L131.679 32.1506C131.673 32.1214 131.649 32.0781 131.593 32.0389C131.537 32.0012 131.451 31.9664 131.338 31.9667C131.225 31.9693 131.104 32.0104 130.998 32.0752C130.89 32.1399 130.794 32.2198 130.692 32.3075C130.592 32.3959 130.49 32.4951 130.394 32.605C130.297 32.7153 130.203 32.8359 130.119 32.9661C130.098 32.9987 130.078 33.032 130.058 33.0657L130.029 33.1167L129.99 33.1888L129.963 33.2392L129.993 33.288L130.035 33.3579L130.088 33.4519C130.221 33.7083 130.256 33.9803 130.24 34.2256C130.218 34.4713 130.142 34.6911 130.047 34.8668C129.951 35.0422 129.84 35.1739 129.756 35.2612C129.715 35.3053 129.677 35.336 129.654 35.3585L129.617 35.3926Z" fill="#D03B58"/>
<path d="M151.199 13.3787C151.211 13.5744 151.347 13.7383 151.486 13.8804C151.569 13.9633 151.655 14.0458 151.74 14.1249C152.293 14.6211 152.909 15.0525 153.365 15.6371C153.61 15.9516 153.801 16.2968 153.988 16.6502L153.992 16.6535C154.123 16.8936 154.251 17.1382 154.395 17.3728C155.27 18.7929 156.556 19.978 157.912 20.9492L157.859 23.5352L158.827 23.4926L160.574 23.4149L160.575 23.4182L162.121 23.3494L162.125 23.3487L162.125 20.6891C162.191 20.4582 162.252 20.2281 162.309 19.9917C162.41 19.5895 162.502 19.1814 162.599 18.7729C162.709 18.2826 162.824 17.795 162.959 17.3184C163.081 16.8944 163.199 16.4426 163.183 16.0097C163.176 15.8273 163.146 15.649 163.084 15.4762C162.924 15.0425 162.577 14.7129 162.224 14.4169C161.571 13.8585 160.868 13.3627 160.126 12.9384C160.032 12.8751 159.937 12.8229 159.842 12.7707C159.659 12.6723 159.459 12.5732 159.254 12.5147L159.213 12.5036C158.948 12.43 158.684 12.4207 158.446 12.5443C158.152 12.6986 157.983 13.0153 157.809 13.3043L157.807 13.3117C157.667 13.5477 157.511 13.7757 157.334 13.9821C156.985 14.4017 156.558 14.7517 156.051 14.9423C155.926 14.9889 155.788 15.0266 155.663 14.9904C155.523 14.946 155.425 14.8183 155.33 14.7018C154.611 13.7982 153.588 13.1411 152.465 12.8644L152.385 12.8418C152.173 12.7952 151.951 12.7611 151.738 12.8007C151.703 12.8066 151.668 12.8126 151.634 12.8259C151.402 12.9014 151.201 13.1119 151.202 13.3527L151.199 13.3787Z" fill="#F68672"/>
<path d="M151.199 13.3787C151.211 13.5744 151.347 13.7383 151.486 13.8804C151.569 13.9633 151.655 14.0458 151.74 14.1249C152.293 14.6211 152.909 15.0525 153.365 15.6371C153.61 15.9516 153.801 16.2968 153.988 16.6502L153.992 16.6535C154.123 16.8936 154.251 17.1382 154.395 17.3728C155.27 18.7929 156.556 19.978 157.912 20.9492L157.859 23.5352L158.827 23.4926L160.575 23.4182L160.574 23.4149L160.846 20.6799C159.412 19.9487 156.549 18.5683 155.1 17.1808C154.842 16.9332 154.631 16.6883 154.478 16.4445C154.304 16.161 154.135 15.8658 153.959 15.5753C153.619 15.0107 153.246 14.4731 152.705 14.1083L152.62 14.0509C152.326 13.8452 151.994 13.567 152.06 13.275C152.068 13.2377 152.08 13.2033 152.099 13.1677C152.176 13.0286 152.334 12.962 152.465 12.8644L152.385 12.8418C152.173 12.7952 151.951 12.7611 151.738 12.8007C151.703 12.8066 151.668 12.8126 151.634 12.8259C151.402 12.9014 151.201 13.1119 151.202 13.3527L151.199 13.3787Z" fill="#F36269"/>
<path d="M159.453 16.8086C160.193 17.314 160.779 18.0255 161.206 18.8125C160.999 17.9604 160.615 17.1279 159.973 16.53C159.331 15.9324 158.404 15.6013 157.553 15.8118C157.398 15.8499 157.206 15.8991 157.094 15.9942C157.351 16.1851 157.932 16.133 158.256 16.2314C158.682 16.3601 159.087 16.5577 159.453 16.8086Z" fill="#D03B58"/>
<path d="M163.365 15.5939C162.887 16.9163 161.478 17.916 161.478 17.916C161.185 17.8272 160.88 17.6703 160.579 17.4668C160.451 17.3843 160.324 17.2915 160.197 17.1919C159.918 16.9714 159.639 16.7205 159.373 16.4508C159.254 16.3346 159.138 16.2148 159.024 16.093C158.723 15.7671 158.438 15.4318 158.182 15.1103C158.07 14.9741 157.965 14.8395 157.865 14.7107C157.596 14.3577 157.371 14.0432 157.207 13.8053C157.016 13.5297 156.906 13.358 156.906 13.358C157.68 12.3261 159.557 11.5235 159.557 11.5235C160.012 11.7115 160.442 11.9912 160.832 12.3175C162.373 13.597 163.365 15.5939 163.365 15.5939Z" fill="#F68672"/>
<path d="M159.552 13.5298C159.552 13.5298 159.455 13.6823 159.296 13.8969C159.136 14.1122 158.922 14.392 158.657 14.6665C158.497 14.8334 158.334 14.9814 158.184 15.1094C158.072 14.9732 157.968 14.8385 157.867 14.7098C157.958 14.5536 158.074 14.3931 158.217 14.2428C158.51 13.9394 158.854 13.753 159.114 13.6531C159.374 13.5528 159.552 13.5298 159.552 13.5298Z" fill="#D03B58"/>
<path d="M160.606 14.9022C160.606 14.9022 160.526 15.0562 160.388 15.2693C160.249 15.4835 160.058 15.7607 159.812 16.0293C159.666 16.1884 159.513 16.3275 159.372 16.4492C159.253 16.333 159.137 16.2132 159.023 16.0914C159.109 15.9342 159.22 15.7688 159.362 15.6145C159.631 15.324 159.95 15.1383 160.192 15.0351C160.438 14.9322 160.606 14.9022 160.606 14.9022Z" fill="#D03B58"/>
<path d="M161.92 15.8209C161.92 15.8209 161.838 15.9823 161.692 16.2098C161.545 16.437 161.338 16.7311 161.071 17.0142C160.908 17.1874 160.738 17.3379 160.581 17.4648C160.453 17.3823 160.326 17.2895 160.199 17.1899C160.302 16.9983 160.443 16.7896 160.627 16.5953C160.913 16.2931 161.241 16.0947 161.492 15.9786C161.745 15.8613 161.92 15.8209 161.92 15.8209Z" fill="#D03B58"/>
<path d="M160.832 12.3169C160.401 12.2725 159.969 12.2707 159.554 12.3846C159.173 12.4879 158.825 12.684 158.49 12.8875C158.105 13.1202 157.684 13.354 157.344 13.6515C157.298 13.6896 157.254 13.7447 157.207 13.8047C157.016 13.529 156.906 13.3574 156.906 13.3574C157.68 12.3254 159.557 11.5229 159.557 11.5229C160.012 11.7109 160.442 11.9906 160.832 12.3169Z" fill="#F9AA7F"/>
<path d="M136.387 46.345L150.544 39.0471L157.893 21.9084L162.091 22.5621L159.387 42.4896C159.313 43.0413 159.019 43.5397 158.573 43.8727L139.187 58.3438L136.387 46.345Z" fill="#F68672"/>
<path d="M134.605 21.4551L141.105 16.402L137.347 13.7791L134.605 21.4551Z" fill="#F9B040"/>
<path d="M134.789 24.1228L139.754 25.5762L139.863 22.7298L134.789 24.1228Z" fill="#F9B040"/>
<path d="M131.103 20.5977L132.005 15.1816L129.398 14.9914L131.103 20.5977Z" fill="#F9B040"/>
<path d="M95.0857 68.9563C95.2289 69.5676 92.9457 71.7635 93.6394 71.0916C94.3328 70.4193 97.8541 69.121 98.2174 69.7285C98.5804 70.3361 94.7487 74.1423 94.7487 74.1423C94.7487 74.1423 98.3909 71.876 98.8557 73.1836C99.0077 73.6113 98.6259 74.2843 98.048 74.9962C99.0714 74.9159 99.9128 75.038 99.7396 75.7122C99.3319 77.3006 94.8264 78.0916 94.8264 78.0916C89.522 78.4591 91.1149 70.1755 91.1149 70.1755C91.1149 70.1755 94.9418 68.3444 95.0857 68.9563Z" fill="#F68672"/>
<path d="M133.207 42.8397C133.207 42.8397 138.673 42.8157 139.604 42.1453C140.536 41.4744 141.633 41.3013 141.633 41.3013L143.931 54.8011L139.62 61.373L133.207 42.8397Z" fill="#B4E1FF"/>
<path d="M120.313 45.4361C120.313 45.4361 115.975 46.1039 115.048 46.8025C114.12 47.5007 107.27 58.2429 107.27 58.2429C107.27 58.2429 114.088 61.7235 113.571 60.8129L120.313 45.4361Z" fill="#B4E1FF"/>
<path d="M120.809 45.3359C120.809 45.3359 120.532 47.6565 124.316 46.8614C128.099 46.0663 132.596 42.9627 132.596 42.9627L129.622 42.172L120.809 45.3359Z" fill="#F68672"/>
<path d="M156.809 21.6442C156.83 22.083 156.339 24.1624 155.805 25.0456C155.272 25.9295 156.045 26.2185 156.016 26.2858C155.988 26.3524 158.124 27.1276 159.253 27.1194C160.381 27.1113 162.325 27.731 162.613 26.6636C162.9 25.5961 162.53 22.7627 162.492 22.0445C162.454 21.3267 157.048 21 156.99 21.1306C156.931 21.2612 156.809 21.6442 156.809 21.6442Z" fill="#DD3464"/>
<path d="M34.0736 41.2972L34.4774 40.0229L34.8812 41.2972C35.3215 42.6869 36.2811 43.8532 37.56 44.5529C36.2811 45.2522 35.3215 46.4184 34.8812 47.8078L34.4774 49.082L34.0736 47.8078C33.633 46.4184 32.6735 45.2522 31.3945 44.5529C32.6735 43.8532 33.633 42.6869 34.0736 41.2972Z" fill="white"/>
<path d="M100.757 7.83861L101.161 6.56433L101.565 7.83861C102.005 9.22833 102.965 10.3942 104.243 11.0939C102.965 11.7935 102.005 12.9594 101.565 14.3491L101.161 15.623L100.757 14.3491C100.317 12.9594 99.3568 11.7935 98.0781 11.0939C99.3568 10.3942 100.317 9.22833 100.757 7.83861Z" fill="white"/>
<path d="M80.1952 17.8029L80.3869 17.1991L80.5782 17.8029C80.7869 18.4615 81.2416 19.0143 81.8477 19.3458C81.2416 19.677 80.7869 20.2298 80.5782 20.8884L80.3869 21.4922L80.1952 20.8884C79.9866 20.2298 79.5318 19.677 78.9258 19.3458C79.5318 19.0143 79.9866 18.4615 80.1952 17.8029Z" fill="white"/>
<path d="M110.324 22.8264L110.515 22.2225L110.707 22.8264C110.915 23.4846 111.37 24.0374 111.977 24.3689C111.37 24.7004 110.915 25.2532 110.707 25.9118L110.515 26.5156L110.324 25.9118C110.115 25.2532 109.66 24.7004 109.055 24.3689C109.66 24.0374 110.115 23.4846 110.324 22.8264Z" fill="white"/>
<path d="M138.031 156.615L138.357 155.586L138.683 156.615C139.039 157.738 139.814 158.679 140.847 159.245C139.814 159.809 139.039 160.751 138.683 161.873L138.357 162.902L138.031 161.873C137.675 160.751 136.9 159.809 135.867 159.245C136.9 158.679 137.675 157.738 138.031 156.615Z" fill="white"/>
<path d="M145.331 88.0702L145.83 86.4932L146.33 88.0702C146.875 89.7896 148.062 91.2326 149.645 92.0984C148.062 92.9638 146.875 94.4068 146.33 96.1266L145.83 97.7031L145.331 96.1266C144.786 94.4068 143.598 92.9638 142.016 92.0984C143.598 91.2326 144.786 89.7896 145.331 88.0702Z" fill="white"/>
<path d="M154.505 101.886L154.843 100.819L155.181 101.886C155.55 103.049 156.354 104.026 157.424 104.611C156.354 105.197 155.55 106.174 155.181 107.338L154.843 108.404L154.505 107.338C154.136 106.174 153.333 105.197 152.262 104.611C153.333 104.026 154.136 103.049 154.505 101.886Z" fill="white"/>
<path d="M97.1089 164.088L97.5122 162.814L97.9162 164.088C98.3565 165.478 99.3159 166.645 100.595 167.344C99.3159 168.043 98.3565 169.209 97.9162 170.599L97.5122 171.873L97.1089 170.599C96.6682 169.209 95.7084 168.043 94.4297 167.344C95.7084 166.645 96.6682 165.478 97.1089 164.088Z" fill="white"/>
<path d="M27.4365 56.7457L27.6739 55.9953L27.9117 56.7457C28.171 57.5637 28.736 58.2501 29.4888 58.6619C28.736 59.0737 28.171 59.7601 27.9117 60.5781L27.6739 61.3281L27.4365 60.5781C27.1772 59.7601 26.6122 59.0737 25.8594 58.6619C26.6122 58.2501 27.1772 57.5637 27.4365 56.7457Z" fill="white"/>
<path d="M37.0497 97.314L37.2872 96.5637L37.525 97.314C37.7844 98.1321 38.349 98.8185 39.102 99.2299C38.349 99.6421 37.7844 100.328 37.525 101.146L37.2872 101.896L37.0497 101.146C36.7904 100.328 36.2254 99.6421 35.4727 99.2299C36.2254 98.8185 36.7904 98.1321 37.0497 97.314Z" fill="white"/>
<path d="M51.5 46.8757C51.5 46.8757 58.8552 47.9717 59.9364 47.7338C61.0175 47.4955 61.3039 47.366 61.1781 47.3216C61.0523 47.2768 58.937 46.5283 58.937 46.5283L53.8047 46.132L51.5 46.8757Z" fill="#F68672"/>
<path d="M88.578 64.3975C89.9829 68.8464 93.2178 72.8187 97.5272 75.375C98.0041 74.524 98.4844 73.6734 98.9613 72.8224C99.13 73.4129 99.2991 74.0034 99.4641 74.5902C100.271 73.6586 100.968 72.6537 101.551 71.5973C102.402 70.0681 103.007 68.4323 103.341 66.7522C103.697 64.9699 103.737 63.088 103.022 61.3938C100.759 56.024 90.0488 54.6672 88.2994 61.1918C88.2332 61.4415 88.1928 61.6979 88.178 61.9547C88.1344 62.7728 88.3286 63.6016 88.578 64.3975Z" fill="#1D1F20"/>
<path d="M121.901 140.904C121.618 140.965 121.257 140.96 120.974 140.678C120.147 139.856 117.364 136.741 116.199 136.057C115.294 135.526 113.708 135.365 113.044 135.319L110.77 128.397C112.379 127.319 115.672 125.745 116.363 125.419L121.901 140.904Z" fill="#B28E92"/>
<path d="M123.456 140.349L117.918 124.863L116.363 125.419L121.901 140.904L123.456 140.349Z" fill="#FDE6D5"/>
<path d="M116.165 134.597L116.208 134.546C116.317 134.422 116.509 134.299 116.655 134.448C116.73 134.525 116.755 134.636 116.771 134.742C116.827 135.106 116.793 135.473 116.731 135.834C116.663 136.222 116.588 136.637 116.347 136.96C116.098 137.295 115.686 137.106 115.63 136.71C115.534 136.026 115.72 135.145 116.165 134.597Z" fill="#FDE6D5"/>
<path d="M117.415 135.464L117.458 135.413C117.567 135.289 117.759 135.166 117.905 135.316C117.979 135.392 118.005 135.503 118.021 135.609C118.077 135.973 118.043 136.34 117.98 136.701C117.913 137.089 117.838 137.504 117.597 137.827C117.348 138.162 116.936 137.973 116.88 137.577C116.784 136.893 116.97 136.012 117.415 135.464Z" fill="#FDE6D5"/>
<path d="M118.478 136.7L118.52 136.65C118.629 136.525 118.821 136.401 118.968 136.552C119.042 136.629 119.067 136.74 119.084 136.845C119.14 137.21 119.106 137.576 119.043 137.937C118.975 138.325 118.9 138.74 118.659 139.064C118.41 139.398 117.999 139.209 117.943 138.813C117.846 138.129 118.032 137.248 118.478 136.7Z" fill="#FDE6D5"/>
<path d="M84.2445 110.969C84.2445 110.969 78.4066 143.633 80.2873 145.702C82.168 147.772 85.1144 148.73 85.1144 148.73L112.61 134.011L110.819 128.563L89.621 135.904L94.3018 112.32L84.2445 110.969Z" fill="#E4B6BB"/>
<path d="M69.6211 175.854C69.7014 175.575 69.876 175.261 70.2582 175.144C71.3734 174.803 75.4338 173.822 76.5871 173.118C77.4829 172.571 78.3738 171.249 78.7272 170.685L85.9033 171.95C86.0924 173.877 85.9248 177.524 85.8863 178.287L69.6211 175.854Z" fill="#B28E92"/>
<path d="M69.375 177.486L85.6402 179.92L85.8844 178.287L69.6192 175.854L69.375 177.486Z" fill="#FDE6D5"/>
<path d="M77.8876 173.779L77.912 173.841C77.9701 173.996 77.9886 174.223 77.7869 174.281C77.6841 174.31 77.5742 174.281 77.4732 174.245C77.1261 174.122 76.819 173.919 76.5304 173.693C76.2204 173.45 75.89 173.188 75.7183 172.823C75.541 172.446 75.9025 172.172 76.2777 172.31C76.9263 172.548 77.6145 173.128 77.8876 173.779Z" fill="#FDE6D5"/>
<path d="M76.5358 174.473L76.5602 174.534C76.6183 174.689 76.6368 174.917 76.4352 174.974C76.3323 175.004 76.2224 174.974 76.1214 174.939C75.7744 174.815 75.4673 174.612 75.1787 174.387C74.8686 174.144 74.5386 173.882 74.3669 173.517C74.1893 173.139 74.5508 172.865 74.926 173.003C75.5746 173.242 76.2631 173.821 76.5358 174.473Z" fill="#FDE6D5"/>
<path d="M74.946 174.824L74.9704 174.885C75.0285 175.04 75.047 175.268 74.8453 175.326C74.7425 175.355 74.6326 175.326 74.5319 175.29C74.1845 175.167 73.8774 174.964 73.5892 174.738C73.2788 174.495 72.9487 174.233 72.777 173.868C72.5994 173.49 72.9609 173.216 73.3361 173.354C73.9847 173.593 74.6729 174.172 74.946 174.824Z" fill="#FDE6D5"/>
<path d="M103.712 119.658C101.704 124.259 93.6148 139.705 93.6148 139.705L93.1156 142.966L85.3837 171.857L79.5703 170.833C79.5703 170.833 83.6041 134.78 84.6278 131.4C84.9797 130.251 87.3684 120.035 89.2935 112.51L101.704 112.937L102.121 112.952L103.604 113.006C103.734 115.286 103.806 117.726 103.712 119.658Z" fill="#FAC8CE"/>
<path d="M84.2403 140.152C84.7217 141.437 86.0744 141.562 87.2751 140.556C87.9181 140.018 88.475 139.325 88.7758 138.504C89.0766 137.683 89.0988 136.728 88.7347 135.967C88.3703 135.204 87.5899 134.685 86.7985 134.787C85.8605 134.908 85.1379 135.804 84.6791 136.726C84.3047 137.479 84.0331 138.316 84.0605 139.159C84.0731 139.544 84.1363 139.875 84.2403 140.152Z" fill="#E4B6BB"/>
<path d="M102.074 77.8261L101.125 89.231L102.716 90.0712V90.0749L108.931 93.3616C107.795 96.6232 105.382 103.958 105.382 103.958L106.075 104.547L109.455 107.432C109.455 107.432 112.912 102.319 115.757 96.0001C116.168 95.084 116.079 94.0154 115.526 93.1766C108.404 82.3763 102.074 77.8261 102.074 77.8261Z" fill="#E2886F"/>
<path d="M70.3201 51.1336C70.3763 51.2923 70.3241 51.4677 70.2616 51.6264C70.2242 51.72 70.1843 51.814 70.1432 51.9054C69.8735 52.483 69.5308 53.0309 69.3673 53.6459C69.28 53.9766 69.2441 54.3137 69.216 54.6556L69.2137 54.6593C69.1912 54.8931 69.1723 55.1296 69.1368 55.3634C68.9226 56.7794 68.3054 58.1473 67.5598 59.3701L68.4704 61.3959L67.6912 61.6874L66.2848 62.2128L66.2856 62.2158L65.0405 62.6809L65.0376 62.6816L64.1433 60.5804C64.0145 60.4198 63.8883 60.2589 63.764 60.0913C63.5494 59.8075 63.3393 59.5159 63.1261 59.2255C62.8738 58.8754 62.6192 58.5288 62.3525 58.1976C62.1134 57.9038 61.8689 57.586 61.736 57.2389C61.6794 57.0928 61.6435 56.9415 61.6343 56.7838C61.6154 56.3876 61.7793 56.0105 61.9584 55.6579C62.2866 54.9975 62.6758 54.3696 63.1195 53.785C63.172 53.7036 63.2297 53.6303 63.2875 53.5571C63.3985 53.4183 63.5235 53.2725 63.6652 53.1575L63.6945 53.1349C63.8783 52.9876 64.0844 52.8918 64.3138 52.9092C64.598 52.9325 64.8381 53.1256 65.0727 53.2955L65.0771 53.301C65.2666 53.4405 65.466 53.5685 65.6754 53.6721C66.0928 53.886 66.5472 54.0192 67.0122 53.9992C67.1266 53.994 67.2479 53.9778 67.3345 53.9067C67.4311 53.8246 67.4648 53.691 67.501 53.5667C67.7656 52.6113 68.3524 51.7485 69.1471 51.1524L69.2023 51.108C69.3551 51 69.5186 50.8982 69.6999 50.8583L69.7902 50.8431C69.9989 50.825 70.229 50.9234 70.3089 51.1143L70.3201 51.1336Z" fill="#F36269"/>
<path d="M70.3216 51.1346C70.3779 51.2933 70.3257 51.4687 70.2632 51.6274C70.2258 51.721 70.1858 51.815 70.1448 51.9064C69.875 52.4839 69.5324 53.0319 69.3689 53.6468C69.2815 53.9776 69.2457 54.3147 69.2175 54.6566L69.2153 54.6603C69.1927 54.8941 69.1739 55.1306 69.1384 55.3644C68.9241 56.7804 68.307 58.1483 67.5614 59.3711L68.472 61.3969L67.6928 61.6884L66.2871 62.2168L66.2864 62.2138L65.1523 60.1444C66.0403 59.0851 67.8382 57.0324 68.5168 55.4495C68.6374 55.1672 68.7217 54.903 68.761 54.6588C68.8035 54.3761 68.8375 54.0864 68.8786 53.7978C68.9585 53.2373 69.0718 52.6874 69.3766 52.2172L69.4247 52.1432C69.5879 51.882 69.7566 51.5508 69.6068 51.3421L69.5394 51.2703C69.4321 51.1863 69.2849 51.1871 69.1487 51.1534L69.2038 51.109C69.3567 51.001 69.5202 50.8992 69.7015 50.8593L69.7918 50.8441C70.0005 50.826 70.2306 50.9244 70.3105 51.1153L70.3216 51.1346Z" fill="#E2886F"/>
<path d="M64.952 56.6172C64.5376 57.265 64.3141 58.0235 64.2412 58.7891C64.1184 58.0461 64.1421 57.2595 64.4484 56.5713C64.7548 55.8835 65.3756 55.3107 66.1193 55.1908C66.254 55.169 66.4224 55.1435 66.543 55.1805C66.4039 55.418 65.9277 55.5719 65.7042 55.7588C65.4112 56.0033 65.1577 56.2953 64.952 56.6172Z" fill="#D03B58"/>
<path d="M61.4492 56.9712C62.2721 57.8555 63.7206 58.1719 63.7206 58.1719C63.9223 58.0032 64.1103 57.7771 64.2801 57.5151C64.3537 57.4067 64.4225 57.2909 64.4891 57.1699C64.636 56.9013 64.7718 56.6101 64.8921 56.3071C64.9465 56.1754 64.9979 56.0418 65.0467 55.9075C65.1751 55.5486 65.288 55.1882 65.3823 54.8478C65.4252 54.7028 65.4626 54.561 65.4985 54.4256C65.5921 54.0564 65.6639 53.7322 65.7142 53.4892C65.7723 53.2072 65.8015 53.0352 65.8015 53.0352C64.8436 52.4794 63.0909 52.4761 63.0909 52.4761C62.7945 52.7776 62.5492 53.1428 62.3498 53.5321C61.5628 55.0602 61.4492 56.9712 61.4492 56.9712Z" fill="#E2886F"/>
<path d="M63.7734 54.0592C63.7734 54.0592 63.9018 54.1469 64.099 54.2631C64.2981 54.3796 64.5612 54.5287 64.8623 54.6564C65.0455 54.7344 65.2235 54.797 65.3848 54.8477C65.4277 54.7026 65.4651 54.5609 65.501 54.4255C65.3774 54.3326 65.2316 54.2445 65.0681 54.1739C64.7343 54.0329 64.4006 54.0007 64.1612 54.0092C63.9218 54.0177 63.7734 54.0592 63.7734 54.0592Z" fill="#D03B58"/>
<path d="M63.3984 55.4993C63.3984 55.4993 63.5139 55.5933 63.6941 55.7158C63.8761 55.8386 64.1199 55.9929 64.4048 56.1224C64.5736 56.199 64.7415 56.2578 64.8936 56.3066C64.948 56.1749 64.9994 56.0413 65.0483 55.907C64.928 55.8112 64.7856 55.7176 64.6209 55.6436C64.3109 55.5045 63.9964 55.4649 63.7699 55.4649C63.5416 55.466 63.3984 55.4993 63.3984 55.4993Z" fill="#D03B58"/>
<path d="M62.6719 56.6665C62.6719 56.6665 62.791 56.7664 62.9823 56.8974C63.1754 57.0272 63.437 57.1904 63.7434 57.3243C63.9302 57.4061 64.1152 57.4683 64.2821 57.5156C64.3557 57.4072 64.4246 57.2914 64.4912 57.1704C64.345 57.0535 64.1641 56.9358 63.9532 56.8441C63.6261 56.7013 63.3005 56.655 63.0626 56.6476C62.8232 56.6398 62.6719 56.6665 62.6719 56.6665Z" fill="#D03B58"/>
<path d="M62.3516 53.5312C62.6775 53.3511 63.0179 53.2045 63.3846 53.155C63.7198 53.1087 64.0606 53.1468 64.3943 53.1945C64.7762 53.2493 65.188 53.2926 65.5565 53.4136C65.6046 53.4284 65.6583 53.4569 65.716 53.4883C65.7741 53.2064 65.8033 53.0343 65.8033 53.0343C64.8454 52.4786 63.0927 52.4753 63.0927 52.4753C62.7963 52.7768 62.551 53.142 62.3516 53.5312Z" fill="#F9AA7F"/>
<path d="M88.1702 77.1939L84.0928 84.7656C80.7306 82.9597 72.9947 79.1146 72.4341 78.6273C72.1958 78.4235 71.7359 77.7068 71.141 76.6893C69.2499 73.4414 67.3444 67.4877 65.9573 64.719C65.5351 63.8802 64.5391 61.4268 64.5391 61.4268L68.1762 60.9698L69.9351 63.3008L76.3546 72.4924L88.1702 77.1939Z" fill="#E2886F"/>
<path d="M103.28 112.968C103.28 112.968 93.5625 113.19 90.9451 113.005C88.3277 112.816 84.9922 111.069 84.9922 111.069C84.9922 111.069 85.0444 110.813 85.1332 110.399C85.4144 109.088 86.0807 106.171 86.7434 104.549C87.6133 102.413 86.7434 98.519 86.7434 98.519L101.199 96.9902L101.788 96.9273L103.28 112.968Z" fill="#E2886F"/>
<path d="M103.28 112.968C103.28 112.968 93.5625 113.19 90.9451 113.005C88.3277 112.816 84.9922 111.069 84.9922 111.069C84.9922 111.069 85.0444 110.813 85.1332 110.399C86.3656 110.854 89.0866 111.798 90.5303 111.85C92.4333 111.924 101.188 111.85 101.188 111.85L100.111 98.0968L101.199 96.9902L101.788 96.9273L103.28 112.968Z" fill="#F36269"/>
<path d="M85.7291 98.5176L86.2734 96.026C86.2734 96.026 83.9487 93.3646 83.4118 89.9513C82.8716 86.5381 87.0167 76.7342 87.0167 76.7342L90.9269 76.0878L95.9578 74.9882L102.074 77.8275L103.724 97.9696C99.582 98.1361 85.7291 98.5176 85.7291 98.5176Z" fill="#726B7B"/>
<path d="M96.8976 76.1875C96.8976 76.1875 94.8023 78.3428 92.1375 77.7818C91.4956 77.6468 90.9258 76.0872 90.9258 76.0872C91.0801 75.9548 92.0695 75.5063 92.1105 75.0261C92.2041 73.9187 92.0798 72.3295 92.0798 72.3295L95.9585 71.7312C95.9585 71.7312 95.9212 72.8035 95.9323 73.9472C95.9426 75.106 96.697 75.9744 96.8976 76.1875Z" fill="#E2886F"/>
<path d="M95.9313 73.9449C94.7924 74.5129 93.399 75.1774 92.9713 75.2418C92.622 75.2936 92.3271 75.1715 92.1111 75.0253C92.2032 73.9172 92.0781 72.3295 92.0781 72.3295L95.9568 71.7312C95.9568 71.7312 95.9209 72.8046 95.9313 73.9449Z" fill="#F36269"/>
<path d="M99.8162 61.8547C98.2267 59.2003 94.9936 57.9061 92.0821 58.9524C91.4128 59.1929 90.8567 59.503 90.5599 59.9011C89.373 61.4936 86.9691 67.7085 87.745 71.044C88.5208 74.3796 90.6983 74.3348 91.4857 74.2519C92.2734 74.169 96.0537 73.338 97.0734 72.3383C98.0931 71.3385 100.904 65.7353 100.794 64.1235C100.757 63.5852 100.347 62.7405 99.8162 61.8547Z" fill="#E2886F"/>
<path d="M100.14 61.4348C98.5508 58.7804 95.3177 57.4858 92.4062 58.5321C91.7369 58.7726 91.1808 59.0827 90.884 59.4808C89.6971 61.0737 87.2935 67.2882 88.0691 70.6241C88.8449 73.9597 91.0224 73.9149 91.8098 73.832C92.5975 73.7491 96.3778 72.9181 97.3975 71.918C98.4176 70.9183 101.228 65.3153 101.118 63.7033C101.082 63.1649 100.671 62.3206 100.14 61.4348Z" fill="#E2886F"/>
<path d="M91.1918 65.9902C91.1204 65.5551 90.8222 65.1633 90.4218 64.9787C90.0211 64.794 89.5297 64.8218 89.1523 65.0501C89.906 65.07 90.7112 65.4093 91.1918 65.9902Z" fill="#121414"/>
<path d="M91.9497 68.2918C92.1155 68.2955 92.2909 68.2726 92.4385 68.3477C92.1492 68.6385 91.7425 68.8091 91.3322 68.8105L91.239 68.7972C91.2034 68.7817 91.1772 68.7513 91.1531 68.721C91.0011 68.529 90.8875 68.3066 90.8209 68.0713C90.8075 68.0236 90.7961 67.9736 90.8027 67.9244C90.8257 67.762 90.9152 67.8341 90.9903 67.9037C91.0776 67.984 91.1749 68.0532 91.2789 68.1101C91.4839 68.2226 91.7155 68.287 91.9497 68.2918Z" fill="#F36269"/>
<path d="M91.3314 68.7125C91.2722 68.5963 91.1971 68.4879 91.1346 68.3721C91.0576 68.2296 90.9918 68.0812 90.9441 67.9262C91.5583 67.7808 91.7499 67.2732 91.9497 66.6908C92.0396 66.4281 92.0666 66.145 92.0289 65.8697C92.0089 65.7251 91.9715 65.583 91.9175 65.4476C91.8898 65.3788 91.8579 65.3118 91.8221 65.2467C91.7873 65.183 91.7433 65.1383 91.6907 65.0883C91.7074 65.1342 91.7122 65.1819 91.7255 65.2274C91.7603 65.3462 91.801 65.4602 91.8232 65.583C91.8454 65.7058 91.8568 65.8302 91.8579 65.9549C91.8598 66.2042 91.8206 66.4547 91.7384 66.6904C91.6581 66.9213 91.5349 67.1388 91.3688 67.319C91.179 67.5248 90.9167 67.7001 90.6407 67.756C90.6381 67.7564 90.8216 68.2703 90.8419 68.3143C90.8948 68.4279 90.9577 68.5367 91.0321 68.6377C91.105 68.7365 91.1883 68.8523 91.3085 68.8938C91.3459 68.9067 91.3873 68.9134 91.4258 68.9034L91.3869 68.8357L91.3733 68.8042L91.3314 68.7125Z" fill="#F14568"/>
<path d="M94.3174 70.2284C92.9499 70.6905 91.3833 70.5225 90.1445 69.7814C90.711 70.3534 91.38 70.7734 92.1792 70.8677C92.9787 70.9621 93.6333 70.6528 94.3174 70.2284Z" fill="#F14568"/>
<path d="M92.8439 71.3795C92.2675 71.6019 91.5837 71.5227 91.0742 71.1738C91.2366 71.4798 91.5016 71.7022 91.8427 71.7629C92.1838 71.8239 92.5853 71.6104 92.8439 71.3795Z" fill="#F14568"/>
<path d="M97.9933 69.1982C98.1975 69.1431 99.3708 68.0775 99.8955 68.9537C100.42 69.8298 100.368 71.1086 99.6132 71.6917C98.9235 72.2237 98.0003 72.765 97.0742 72.3384L97.9933 69.1982Z" fill="#E2886F"/>
<path d="M99.7008 69.9009C99.7089 70.0744 99.6501 70.2416 99.5668 70.3952C99.2138 71.0479 98.4587 71.4512 97.7383 71.8223C97.9917 71.5218 98.1353 71.1548 98.169 70.7766C98.1804 70.6449 98.1793 70.5117 98.2037 70.3819C98.2999 69.8602 99.6553 68.8756 99.7008 69.9009Z" fill="#F36269"/>
<path d="M97.3867 71.959L97.4263 71.9445C97.4518 71.9342 97.4922 71.9224 97.5395 71.9002C97.635 71.8569 97.7689 71.7843 97.9051 71.6641C98.0409 71.5442 98.1759 71.3755 98.2662 71.1616C98.3513 70.9478 98.3927 70.6873 98.3291 70.4161C98.3236 70.3824 98.3128 70.3491 98.3014 70.3162L98.2936 70.2918L98.2925 70.2884V70.2892L98.2921 70.2888H98.2917L98.2943 70.2855L98.3084 70.2677L98.3372 70.2322L98.3957 70.1634C98.4745 70.0727 98.557 69.9898 98.6395 69.9136C98.7224 69.8374 98.8064 69.7689 98.8878 69.7072C98.9703 69.6461 99.0488 69.5891 99.1235 69.5503C99.1982 69.5107 99.2759 69.4907 99.3444 69.4944C99.4125 69.4992 99.472 69.5277 99.5105 69.5584C99.5486 69.5895 99.5668 69.6232 99.5727 69.6469L99.5771 69.6839L99.5819 69.6465C99.5823 69.6213 99.5723 69.5817 99.5361 69.5395C99.5002 69.4985 99.4391 69.4544 99.3518 69.4352C99.2637 69.4171 99.1623 69.43 99.0684 69.4644C98.9725 69.4988 98.8834 69.5481 98.789 69.6024C98.6947 69.6579 98.5977 69.722 98.5019 69.7956C98.4064 69.8692 98.3125 69.9525 98.2229 70.0453L98.1574 70.1164L98.1252 70.1534L98.082 70.2059L98.0516 70.2433L98.0657 70.2884L98.0856 70.3535L98.1093 70.4405C98.1645 70.6758 98.1423 70.9063 98.0845 71.1058C98.0224 71.3045 97.9232 71.4724 97.817 71.6004C97.7105 71.7285 97.5998 71.818 97.5188 71.875C97.4789 71.9042 97.4433 71.9227 97.4211 71.9372L97.3867 71.959Z" fill="#D03B58"/>
<path d="M89.418 62.9952C89.418 62.9952 90.4751 62.4509 91.0437 62.6126C91.6124 62.7743 91.689 63.337 91.4419 63.4003C91.1947 63.464 89.418 62.9952 89.418 62.9952Z" fill="#353638"/>
<path d="M97.4363 65.3984C97.4363 65.3984 96.3174 63.9795 95.4501 63.6439C94.5832 63.3083 94.1507 63.7715 94.45 64.0435C94.749 64.3158 97.4363 65.3984 97.4363 65.3984Z" fill="#353638"/>
<path d="M94.3284 69.068C94.3143 69.3499 94.9063 69.609 95.6511 69.646C96.3959 69.683 97.0109 69.4846 97.0249 69.2031C97.039 68.9208 96.447 68.6621 95.7022 68.6251C94.9574 68.5877 94.3424 68.7861 94.3284 69.068Z" fill="#F36269"/>
<path d="M87.4993 66.3586C87.3749 66.5321 87.6983 66.9776 88.2219 67.3528C88.7454 67.7279 89.2708 67.8915 89.3955 67.7176C89.5202 67.5437 89.1968 67.0986 88.6733 66.7234C88.1493 66.3478 87.6239 66.1847 87.4993 66.3586Z" fill="#F36269"/>
<path d="M96.717 66.0929C96.5468 66.2831 96.1909 66.3471 95.9511 66.3693C95.8919 66.2106 95.7924 66.0918 95.6547 66.04C95.3043 65.9076 94.8478 66.2561 94.6354 66.8189C94.4226 67.3813 94.5336 67.9448 94.8844 68.0773C95.2348 68.2101 95.691 67.8612 95.9041 67.2984C95.9696 67.1245 96.0044 66.9502 96.0107 66.7885C96.367 66.6546 96.717 66.0929 96.717 66.0929Z" fill="#121414"/>
<path d="M95.2578 67.1351C95.2578 67.1351 95.5675 67.39 95.9471 67.3867C96.3267 67.3837 96.6324 67.124 96.6324 67.124C96.6324 67.124 96.3223 66.8691 95.9427 66.8724C95.5634 66.8753 95.2578 67.1351 95.2578 67.1351Z" fill="#FDE6D5"/>
<path d="M88.4584 94.7238C91.4547 92.6522 95.0859 94.7238 98.3297 93.6478C98.5058 93.5897 98.6279 93.8695 98.4573 93.9505C95.3834 95.4135 91.6911 93.3278 88.8236 95.3487C88.4433 95.6173 88.0762 94.988 88.4584 94.7238Z" fill="#443750"/>
<path d="M93.0078 46.4885L95.6348 51.8105L95.8816 46.3394L93.0078 46.4885Z" fill="#F9B040"/>
<path d="M91.0273 53.3576L94.3847 53.4941L91.7318 51.8887L91.0273 53.3576Z" fill="#F9B040"/>
<path d="M98.9284 49.1198L98.043 52.3613L100.202 50.1358L98.9284 49.1198Z" fill="#F9B040"/>
<path d="M101.453 62.9337C101.959 62.6843 102.505 62.6477 103.037 62.7687C104.093 63.0036 105.073 63.8691 105.484 64.9106C106.104 66.4731 105.781 68.241 105.344 69.8694C104.908 71.4944 104.358 73.1487 104.556 74.8211C104.787 76.8161 106.045 78.5326 107.351 80.0621C106.778 78.2724 106.599 76.3581 106.826 74.491C107.046 76.5157 107.831 78.5218 109.261 79.9704C110.692 81.4193 112.804 82.2481 114.81 81.8925C114.334 81.1625 113.967 80.3888 113.696 79.5815C112.625 76.398 113.021 72.7158 113.769 69.3595C114.294 67.0015 114.954 64.467 114.011 62.2407C113.105 60.0988 110.765 58.7379 108.436 58.7013C106.921 58.6795 105.436 59.1634 104.16 59.9593C103.54 60.3445 102.909 60.8103 102.425 61.3568C102.153 61.665 101.732 62.7983 101.453 62.9337Z" fill="#1D1F20"/>
<path d="M101.453 62.9342C101.959 62.6849 102.505 62.6482 103.037 62.7692C103.764 62.333 104.552 62.1128 105.385 62.2964C106.834 62.6079 107.765 64.0935 108.014 65.5568C108.26 67.0202 107.993 68.5131 107.937 69.9946C107.879 71.4801 108.081 73.083 109.078 74.1797C109.155 72.9069 109.602 71.6563 110.354 70.6254C110.175 72.6797 110.292 74.8142 111.165 76.6812C111.711 77.8586 112.603 78.9075 113.696 79.582C112.845 77.059 112.918 74.22 113.359 71.4764C113.476 70.7616 113.615 70.0534 113.769 69.36C114.294 67.002 114.954 64.4675 114.011 62.2412C113.105 60.0993 110.765 58.7384 108.436 58.7018C107.186 58.6837 105.953 59.01 104.842 59.5783C104.607 59.6919 104.38 59.8203 104.16 59.9598C103.54 60.345 102.909 60.8108 102.425 61.3573C102.153 61.6655 101.732 62.7988 101.453 62.9342Z" fill="#353638"/>
<path d="M104.84 59.5785C105.702 59.597 106.553 59.7143 107.363 59.9929C108.959 60.5468 110.385 61.8451 110.664 63.5105C110.785 64.2183 110.697 64.9409 110.705 65.6598C110.723 67.1087 111.145 68.5462 111.911 69.7712C111.996 68.7844 112.308 67.8165 112.814 66.9652C112.634 68.484 112.832 70.0428 113.357 71.4766C113.474 70.7617 113.613 70.0535 113.767 69.3602C114.291 67.0022 114.952 64.4676 114.009 62.2414C113.103 60.0994 110.763 58.7386 108.434 58.7019C107.183 58.6838 105.951 59.0101 104.84 59.5785Z" fill="#4A4C4E"/>
<path d="M103.432 59.9045C104.529 60.8136 105.077 62.3398 104.809 63.7399C104.112 67.3792 100.368 62.8674 100.851 60.6826C101.137 59.392 102.368 59.0235 103.432 59.9045Z" fill="#F25540"/>
<path d="M90.9233 58.3139C92.3304 57.515 94.0857 57.0111 95.7196 57.3829C97.4742 57.7822 99.3301 58.9984 100.295 60.5372C100.977 61.6268 101.16 62.9711 101.048 64.252C100.936 65.5329 100.611 66.9963 100.227 68.2236C100.025 68.0034 99.6402 67.9346 99.5121 68.097C99.0774 68.6469 98.5557 69.1279 97.9722 69.5156C98.609 68.2765 99.2624 66.8664 98.8295 65.5418C98.7 65.1463 98.4798 64.7878 98.2908 64.417C97.8797 63.6119 97.6107 62.735 97.4986 61.8381C97.3243 62.6303 97.4094 63.4768 97.7376 64.2187C96.4149 63.4258 95.3741 62.1748 94.8346 60.7303C94.8268 61.2809 94.8672 61.8167 95.0059 62.3495C93.5459 62.6802 91.9079 61.9439 91.2656 60.5916C91.398 61.0837 91.4428 61.5133 91.4609 62.0228C91.0388 61.7075 90.5844 61.2827 90.278 60.845L88.9028 62.3188C88.9028 62.3188 88.3433 59.778 90.9233 58.3139Z" fill="#1D1F20"/>
<path d="M88.1758 61.9551C88.9498 61.1555 89.7897 60.4259 90.6885 59.7728C90.8094 60.0259 90.9341 60.279 91.0588 60.5284C91.114 60.0847 91.1691 59.6374 91.2238 59.1897C91.9317 60.1325 92.9551 60.8366 94.0884 61.1555C93.9378 60.4477 93.9604 59.707 94.1506 59.0066C94.9468 60.0995 96.0105 60.9905 97.2245 61.5814C97.2645 60.9761 97.3855 60.3781 97.5838 59.8061C97.8332 60.9061 98.706 61.7386 99.3117 62.6921C100.188 64.0789 100.503 65.8101 100.17 67.42C100.595 66.9508 100.921 66.3895 101.119 65.7879C101.655 67.6697 101.798 69.6574 101.548 71.5977C102.312 70.2261 102.88 68.766 103.225 67.2661C103.269 67.0973 103.305 66.9249 103.338 66.7525C103.694 64.9702 103.735 63.0884 103.019 61.3942C100.987 56.5745 92.1481 54.9865 89.0967 59.4317C88.7482 59.9382 88.4766 60.5247 88.2971 61.1921C88.2309 61.4419 88.1906 61.6983 88.1758 61.9551Z" fill="#353638"/>
<path d="M89.0977 59.4312C89.5232 59.1489 89.9779 58.9107 90.4511 58.7271C90.4948 58.8885 90.5392 59.0498 90.5869 59.2111C90.8141 58.7382 91.2211 58.3494 91.7091 58.1514C92.105 58.8555 92.6881 59.4497 93.3852 59.8567C93.3231 59.1563 93.3926 58.4448 93.5869 57.7699C94.5774 58.5107 95.7214 59.0461 96.9243 59.3362C96.9135 58.8996 96.9024 58.463 96.8917 58.023C99.1472 59.3691 100.823 61.6579 101.425 64.2179C101.718 63.8435 101.89 63.3743 101.902 62.9011C102.551 64.2801 102.998 65.7582 103.226 67.2656C103.27 67.0969 103.306 66.9245 103.339 66.7521C103.695 64.9698 103.736 63.088 103.02 61.3937C100.988 56.5741 92.149 54.9861 89.0977 59.4312Z" fill="#4A4C4E"/>
<path d="M84.2031 111.216L84.2697 110.975L84.7592 109.206C84.7592 109.206 88.743 111.717 89.9241 111.58C91.1051 111.443 103.65 110.792 103.65 110.792L103.791 113.131C103.791 113.131 90.6896 113.48 88.9436 112.93" fill="#B99EB2"/>
<path d="M108.23 106.255C108.186 106.633 108.001 108.125 107.949 108.51C107.841 109.309 107.719 110.009 107.612 110.128C107.342 110.431 104.798 111.305 104.798 111.305L104.128 113.137C104.043 113.163 103.928 113.159 103.792 113.13C103.665 113.104 103.525 113.059 103.369 113.004L103.281 112.967C102.977 112.844 102.636 112.674 102.322 112.507C102.255 112.471 102.188 112.433 102.122 112.4C101.6 112.112 101.189 111.849 101.189 111.849L101.522 109.372L102.533 107.984L101.471 107.581C101.471 107.581 98.7644 110.646 98.3644 110.209C98.2312 110.061 98.3052 109.775 98.4976 109.416C98.8754 108.71 99.7156 107.728 100.341 107.003C100.478 106.844 100.674 106.703 100.911 106.573C101.467 106.274 102.244 106.048 102.973 105.889C103.177 105.848 103.373 105.807 103.562 105.774C103.947 105.703 104.295 105.652 104.557 105.618L106.646 105.278L106.772 105.256L108.23 106.255Z" fill="#E2886F"/>
<path d="M103.28 112.966L103.368 113.002C103.386 112.923 103.408 112.819 103.436 112.694C103.499 112.41 103.591 112.028 103.699 111.617C103.81 111.207 103.934 110.844 104.059 110.582C104.091 110.516 104.12 110.456 104.146 110.404C104.176 110.353 104.201 110.309 104.224 110.273C104.265 110.2 104.29 110.157 104.29 110.157C104.29 110.157 104.249 110.184 104.176 110.237C104.14 110.262 104.095 110.296 104.045 110.335C103.999 110.378 103.948 110.428 103.891 110.486C103.669 110.716 103.426 111.099 103.304 111.549C103.186 111.999 103.194 112.411 103.232 112.699C103.246 112.805 103.263 112.894 103.28 112.966Z" fill="#D03B58"/>
<path d="M102.123 112.399C102.187 112.436 102.255 112.472 102.322 112.508L102.335 112.458C102.398 112.175 102.49 111.793 102.598 111.383C102.708 110.972 102.833 110.609 102.957 110.347C102.99 110.281 103.018 110.222 103.044 110.17C103.074 110.118 103.101 110.075 103.122 110.038C103.165 109.964 103.188 109.923 103.188 109.923C103.188 109.923 103.149 109.949 103.075 110.001C103.04 110.028 102.994 110.06 102.944 110.101C102.898 110.144 102.846 110.194 102.789 110.251C102.567 110.483 102.324 110.865 102.204 111.315C102.093 111.732 102.092 112.117 102.123 112.399Z" fill="#D03B58"/>
<path d="M106.645 105.278C106.485 105.315 102.439 106.204 101.476 106.77C100.496 107.347 98.3633 110.209 98.3633 110.209L98.4965 109.417C98.8743 108.71 99.7145 107.729 100.34 107.003C100.477 106.844 100.673 106.704 100.91 106.574C101.466 106.274 102.243 106.048 102.972 105.889C103.176 105.848 103.372 105.807 103.561 105.774C103.946 105.704 104.294 105.652 104.556 105.619L106.645 105.278Z" fill="#D9836B"/>
<path d="M103.867 104.533L105.667 101.888L110.696 106.872L108.928 108.625L103.867 104.533Z" fill="#594766"/>
<path d="M30.9137 125.018C30.9137 125.912 30.1889 126.637 29.2948 126.637C28.4006 126.637 27.6758 125.912 27.6758 125.018C27.6758 124.124 28.4006 123.399 29.2948 123.399C30.1889 123.399 30.9137 124.124 30.9137 125.018Z" fill="white"/>
<path d="M30.2911 136.005C30.2911 136.557 29.8438 137.004 29.2921 137.004C28.7403 137.004 28.293 136.557 28.293 136.005C28.293 135.453 28.7403 135.006 29.2921 135.006C29.8438 135.006 30.2911 135.453 30.2911 136.005Z" fill="white"/>
<path d="M41.4683 136.004C41.4683 136.899 40.7435 137.623 39.8492 137.623C38.9553 137.623 38.2305 136.899 38.2305 136.004C38.2305 135.11 38.9553 134.386 39.8492 134.386C40.7435 134.386 41.4683 135.11 41.4683 136.004Z" fill="white"/>
</svg>
